<svg width="18" height="21" viewBox="0 0 18 21" fill="none" xmlns="http://www.w3.org/2000/svg">
<path fill-rule="evenodd" clip-rule="evenodd" d="M4.82951 2.5795L7.07951 0.329505C7.51884 -0.109835 8.23116 -0.109835 8.67049 0.329505C9.07604 0.735049 9.10724 1.37318 8.76408 1.81451L8.67049 1.9205L8.31281 2.2759C8.54056 2.25867 8.76974 2.25 9 2.25C13.9706 2.25 18 6.27944 18 11.25C18 16.2206 13.9706 20.25 9 20.25C4.02944 20.25 0 16.2206 0 11.25C0 10.6287 0.50368 10.125 1.125 10.125C1.74632 10.125 2.25 10.6287 2.25 11.25C2.25 14.9779 5.27208 18 9 18C12.7279 18 15.75 14.9779 15.75 11.25C15.75 7.52208 12.7279 4.5 9 4.5C8.78955 4.5 8.58051 4.5096 8.37332 4.52863L8.67049 4.82951C9.10983 5.26884 9.10983 5.98116 8.67049 6.42049C8.26495 6.82604 7.62682 6.85724 7.18549 6.51408L7.07951 6.42049L4.82951 4.1705C4.42396 3.76495 4.39276 3.12682 4.73592 2.68549L4.82951 2.5795L7.07951 0.329505L4.82951 2.5795Z" fill="url(#paint0_linear_537_377)"/>
<defs>
<linearGradient id="paint0_linear_537_377" x1="9" y1="0" x2="9" y2="20.25" gradientUnits="userSpaceOnUse">
<stop stop-color="#5CC6FE"/>
<stop offset="1" stop-color="#CA73FF"/>
</linearGradient>
</defs>
</svg>
