<svg width="98" height="75" viewBox="0 0 98 75" fill="none" xmlns="http://www.w3.org/2000/svg">
<path d="M43.0234 11.8894C47.1895 9.22692 52.5621 9.39221 56.5567 12.3057L82.6533 31.3396C89.4771 36.3165 89.1607 46.5981 82.044 51.1463L54.8268 68.54C50.6607 71.2024 45.2881 71.0372 41.2935 68.1237L15.1969 49.0898C8.37315 44.1128 8.68945 33.8312 15.8062 29.2831L43.0234 11.8894Z" fill="#464646"/>
<path d="M10.2668 32.9053L10.2666 40.0012H87.4998V36.0012L10.2668 32.9053Z" fill="#464646"/>
<path d="M43.0234 5.88936C47.1895 3.22692 52.5621 3.39221 56.5567 6.30569L82.6533 25.3396C89.4771 30.3165 89.1607 40.5981 82.044 45.1463L54.8268 62.54C50.6607 65.2024 45.2881 65.0372 41.2935 62.1237L15.1969 43.0898C8.37315 38.1128 8.68945 27.8312 15.8062 23.2831L43.0234 5.88936Z" fill="#2D2D2D"/>
<path d="M41.5828 46.7307L44.0618 44.8764L42.8512 41.5135L46.8316 38.5362L49.7156 40.6473L52.2023 38.7872L39.836 30.4394L37.0599 32.5159L41.5828 46.7307ZM40.0661 33.7795L40.2069 33.6742L44.97 37.1725L42.0688 39.3426L40.0661 33.7795ZM54.4177 37.13L56.7793 35.3635L53.6908 31.2346L55.6224 29.7898L60.8144 32.3452L63.4889 30.3447L57.7599 27.6421C58.6699 26.1686 58.4906 24.3637 57.4085 22.917L57.3968 22.9014C55.7355 20.6805 53.2417 20.4117 50.6768 22.3303L45.977 25.8458L54.4177 37.13ZM52.404 29.5142L49.7191 25.9248L51.7679 24.3923C52.9487 23.509 54.2024 23.6688 55.0155 24.7558L55.0272 24.7714C55.8578 25.8819 55.6649 27.075 54.4841 27.9582L52.404 29.5142Z" fill="#EAC102"/>
</svg>
