<svg width="22" height="18" viewBox="0 0 22 18" fill="none" xmlns="http://www.w3.org/2000/svg">
<path fill-rule="evenodd" clip-rule="evenodd" d="M17.8307 0.425811L17.9222 0.322183C18.3187 -0.0743498 18.9427 -0.104852 19.3742 0.230675L19.4778 0.322183L21.6778 2.52218L21.7234 2.57054V2.57054L21.7767 2.63546V2.63546L21.8629 2.76753V2.76753L21.9212 2.89044V2.89044L21.9556 2.98989V2.98989L21.9832 3.10788V3.10788L21.9981 3.23481V3.23481L21.9982 3.36248V3.36248L21.984 3.48774V3.48774L21.9705 3.55417V3.55417L21.9341 3.67583V3.67583L21.897 3.76554V3.76554L21.8394 3.87278V3.87278L21.7659 3.97843L21.7044 4.0503V4.0503L19.4778 6.27782C19.0482 6.70739 18.3518 6.70739 17.9222 6.27782C17.5256 5.88129 17.4951 5.25733 17.8307 4.82581L17.9222 4.72218L18.2424 4.4H15.4C11.8271 4.4 10.0259 5.49418 7.70196 8.79826C10.0255 12.1056 11.8267 13.2 15.4 13.2H18.2435L17.9222 12.8778C17.5256 12.4813 17.4951 11.8573 17.8307 11.4258L17.9222 11.3222C18.3187 10.9257 18.9427 10.8951 19.3742 11.2307L19.4778 11.3222L21.6778 13.5222L21.7234 13.5705V13.5705L21.784 13.6452V13.6452L21.8629 13.7675V13.7675L21.9172 13.8806V13.8806L21.9606 14.0074V14.0074L21.9924 14.1701V14.1701L22 14.3V14.3L21.9974 14.3765V14.3765L21.9842 14.4861V14.4861L21.9453 14.6434V14.6434L21.899 14.7611V14.7611L21.8394 14.8728V14.8728L21.7583 14.988V14.988L21.6778 15.0778L19.4778 17.2778C19.0482 17.7074 18.3518 17.7074 17.9222 17.2778C17.5256 16.8813 17.4951 16.2573 17.8307 15.8258L17.9222 15.7222L18.2424 15.4H15.4C11.225 15.4 8.92619 14.1127 6.40912 10.7623L5.8494 11.6392C5.69798 11.8737 5.56019 12.0835 5.42883 12.2792L5.29935 12.4704L5.04685 12.8337L4.7923 13.1865C3.74482 14.613 2.55644 15.4 1.1 15.4C0.492487 15.4 0 14.9075 0 14.3C0 13.7359 0.424644 13.2709 0.971717 13.2074L1.23719 13.1938C1.82942 13.1402 2.39464 12.7347 3.01904 11.8844C3.28431 11.5232 3.52828 11.1697 3.8253 10.7163L4.01047 10.4314L5.0501 8.8L4.01047 7.16859C3.62501 6.57144 3.33737 6.14909 3.01904 5.71557C2.39464 4.86525 1.82942 4.45975 1.23719 4.40616L1.1 4.4C0.492487 4.4 0 3.90751 0 3.3C0 2.69249 0.492487 2.2 1.1 2.2C2.55644 2.2 3.74482 2.98696 4.7923 4.41345L5.04685 4.76635L5.29935 5.12959L5.70226 5.73414C5.84539 5.95336 5.99975 6.19373 6.17254 6.46561L6.40912 6.83766C8.84991 3.58879 11.0855 2.27991 15.0256 2.20357L15.4 2.2H18.2435L17.9222 1.87782C17.5256 1.48129 17.4951 0.857331 17.8307 0.425811L17.9222 0.322183L17.8307 0.425811Z" fill="url(#paint0_linear_537_382)"/>
<defs>
<linearGradient id="paint0_linear_537_382" x1="11" y1="0" x2="11" y2="17.6" gradientUnits="userSpaceOnUse">
<stop stop-color="#5CC6FE"/>
<stop offset="1" stop-color="#CA73FF"/>
</linearGradient>
</defs>
</svg>
