<svg width="367" height="284" viewBox="0 0 367 284" fill="none" xmlns="http://www.w3.org/2000/svg">
<path opacity="0.3" d="M106.091 73.769C79.3546 82.3508 58.2704 102.548 55.05 139.805C52.2975 171.203 62.7386 228.921 106.604 242.486C175.105 263.672 294.297 254.45 307.344 200.358C316.18 163.695 318.905 98.0356 269.268 77.603C235.577 63.7552 163.407 55.3901 106.091 73.769Z" fill="#E6E6E6"/>
<path d="M236.807 82.5864L247.725 96.3023C248.336 97.0703 249.118 97.6764 250.005 98.0698C250.891 98.4632 251.857 98.6324 252.821 98.5632C253.784 98.494 254.718 98.1884 255.543 97.672C256.367 97.1557 257.059 96.4437 257.56 95.5958L262.561 87.6828L266.671 90.7821C266.671 90.7821 262.662 102.086 255.588 108.2C248.514 114.314 230.678 94.8045 230.678 94.8045L236.807 82.5864Z" fill="#CA73FF"/>
<path opacity="0.09" d="M236.807 82.5864L247.725 96.3023C248.336 97.0703 249.118 97.6764 250.005 98.0698C250.891 98.4632 251.857 98.6324 252.821 98.5632C253.784 98.494 254.718 98.1884 255.543 97.672C256.367 97.1557 257.059 96.4437 257.56 95.5958L262.561 87.6828L266.671 90.7821C266.671 90.7821 262.662 102.086 255.588 108.2C248.514 114.314 230.678 94.8045 230.678 94.8045L236.807 82.5864Z" fill="black"/>
<path d="M238.688 68.7575C238.521 70.6914 238.098 72.593 237.431 74.4097C237.243 74.8291 236.901 75.1549 236.479 75.3156C236.058 75.4763 235.592 75.4588 235.183 75.2669C234.512 74.9978 233.931 74.5355 233.509 73.9357C233.088 73.3358 232.844 72.6238 232.807 71.8851L232.329 68.7293C232.3 68.0851 232.466 67.4474 232.805 66.9042C233.143 66.3609 233.638 65.9388 234.219 65.6959C236.33 64.622 238.981 66.638 238.688 68.7575Z" fill="#F4A28C"/>
<path d="M232.421 69.2568L228.779 79.9583L234.669 81.5974L234.953 73.1568L232.421 69.2568Z" fill="#F4A28C"/>
<path d="M238.385 70.9243L239.082 72.4033C239.123 72.4867 239.142 72.5794 239.138 72.6727C239.134 72.7659 239.107 72.8565 239.059 72.9358C239.011 73.0151 238.944 73.0806 238.865 73.1259C238.785 73.1712 238.696 73.1948 238.605 73.1946H237.293L238.385 70.9243Z" fill="#F4A28C"/>
<path opacity="0.31" d="M234.963 75.0029C234.252 74.6738 233.652 74.1363 233.238 73.458C233.182 75.1005 233.736 76.7033 234.788 77.9421L234.963 75.0029Z" fill="#CE8172"/>
<path d="M231.265 72.6481L233.293 72.8365C233.293 72.8365 235.807 70.9524 235.651 68.1923C235.651 68.1923 237.687 69.9633 239.504 68.5503C241.321 67.1372 240.367 64.1416 238.174 63.1901C235.981 62.2387 229.522 61.1836 231.265 72.6481Z" fill="#FFD200"/>
<path d="M228.779 79.9677L234.669 81.5974C234.669 81.5974 245.679 87.2495 245.872 98.5538C246.064 109.858 231.494 125.552 231.494 125.552L212.511 116.961C212.511 116.961 207.52 79.5909 228.779 79.9677Z" fill="#CA73FF"/>
<path d="M263.644 88.5306C263.644 88.5306 264.561 84.4987 267.589 84.6683C270.617 84.8379 266.277 90.5183 266.277 90.5183L263.644 88.5306Z" fill="#F4A28C"/>
<path d="M228.457 86.3262L226.907 40.5814L221.98 39.7524C221.98 39.7524 214.135 71.2821 215.842 87.6168C217.548 103.952 228.457 92.6755 228.457 86.3262Z" fill="#CA73FF"/>
<path opacity="0.46" d="M228.457 86.3262L226.907 40.5814L221.98 39.7524C221.98 39.7524 214.135 71.2821 215.842 87.6168C217.548 103.952 228.457 92.6755 228.457 86.3262Z" fill="white"/>
<path d="M226.136 40.5156C226.136 40.5156 228.274 37.1808 226.43 35.6924C224.586 34.204 223.42 33.8084 222.824 35.5888C222.459 36.9592 222.356 38.3891 222.521 39.7997L226.136 40.5156Z" fill="#F4A28C"/>
<path d="M133.148 68.2112C132.941 69.9904 132.969 71.7902 133.23 73.5619C133.274 73.7713 133.357 73.9698 133.476 74.1457C133.595 74.3216 133.747 74.4713 133.923 74.5862C134.099 74.7011 134.295 74.7789 134.501 74.8149C134.707 74.8509 134.917 74.8444 135.12 74.7959C135.783 74.6868 136.4 74.3833 136.898 73.9219C137.396 73.4606 137.754 72.8612 137.928 72.1959L138.955 69.3699C139.105 68.7894 139.075 68.1756 138.87 67.6135C138.664 67.0514 138.293 66.5689 137.809 66.2329C136.084 64.9141 133.276 66.2423 133.148 68.2112Z" fill="#F4A28C"/>
<path d="M138.772 69.916L140.056 80.4008L134.377 80.721L135.726 72.9588L138.772 69.916Z" fill="#F4A28C"/>
<path d="M136.396 71.0841C136.396 71.0841 136.46 69.8406 137.359 69.9631C138.258 70.0855 138.185 71.8471 136.946 72.0073L136.396 71.0841Z" fill="#F4A28C"/>
<path d="M133.038 70.2363L132.12 71.4515C132.069 71.5202 132.035 71.6009 132.022 71.6864C132.009 71.7718 132.017 71.8593 132.045 71.9408C132.073 72.0223 132.121 72.0952 132.184 72.1529C132.247 72.2106 132.323 72.2512 132.405 72.2711L133.597 72.5443L133.038 70.2363Z" fill="#F4A28C"/>
<path d="M134.377 80.7684C134.377 80.7684 125.698 82.0873 123.119 70.783C120.541 59.4786 132.175 51.0004 132.175 51.0004C132.175 51.0004 138.038 49.4084 135.258 46.2055C132.478 43.0026 128.835 48.6453 128.835 48.6453C128.835 48.6453 111.219 56.9823 114.761 72.9779C118.303 88.9735 127.991 94.0793 127.991 94.0793L134.377 80.7684Z" fill="#F4A28C"/>
<path opacity="0.31" d="M135.359 74.6451C136.059 74.4821 136.697 74.112 137.194 73.5806C136.926 75.0864 136.113 76.4324 134.918 77.3487L135.359 74.6451Z" fill="#CE8172"/>
<path d="M127.046 85.3558C127.046 85.3558 115.44 97.8659 124.074 105.402C132.707 112.938 136.818 117.206 136.818 117.206L152.874 112.006C152.874 112.006 152.167 98.5913 154.709 90.9044C157.25 83.2174 153.011 78.7993 148.69 78.6109C144.369 78.4225 137.882 76.1146 127.046 85.3558Z" fill="#CA73FF"/>
<path opacity="0.09" d="M138.744 78.7524C138.744 78.7524 132.524 87.3343 137.873 94.1168C143.222 100.899 145.36 114.446 145.36 114.446L152.874 112.006C152.874 112.006 152.516 99.4016 153.911 94.1074C154.601 91.8543 155.131 89.5529 155.498 87.2212C155.718 84.9133 146.571 77.1133 146.571 77.1133L138.744 78.7524Z" fill="black"/>
<path d="M150.314 92.8075C144.543 96.8488 138.258 88.446 143.387 83.5757C144.814 82.1945 146.349 80.9343 147.974 79.8076C153.745 75.9076 159.984 59.4504 152.562 50.8685C152.562 50.8685 148.314 45.678 151.644 43.9823C154.975 42.2867 155.58 49.983 155.58 49.983C155.58 49.983 167.811 63.3315 161.755 75.9641C158.471 82.7938 154.7 89.7365 150.314 92.8075Z" fill="#F4A28C"/>
<path d="M136.001 69.0968C136.001 69.0968 136.065 80.533 143.249 80.3069C150.433 80.0809 152.103 76.4823 153.14 73.5338C154.177 70.5852 141.543 76.6613 141.001 68.5222C140.46 60.3831 133.918 62.1635 132.239 64.8954C130.56 67.6273 136.001 69.0968 136.001 69.0968Z" fill="#24285B"/>
<path d="M172.6 34.4488C172.949 34.7503 174.068 33.3278 174.215 33.017C174.866 31.9263 175.138 30.6411 174.986 29.3713C174.793 28.5989 174.022 27.4213 173.151 27.3931C172.659 27.4515 172.193 27.6501 171.805 27.9664C171.418 28.2827 171.124 28.7041 170.958 29.1829C170.586 29.8888 170.252 30.6153 169.958 31.359C169.728 32.0373 170.077 32.301 170.573 32.7249C171.242 33.309 171.921 33.8742 172.6 34.4488Z" fill="#F4A28C"/>
<path d="M171.426 72.2146C171.426 72.2146 169.884 50.3596 174.05 34.7219L169.958 31.3589C169.958 31.3589 158.113 59.4972 162.618 88.0406L171.426 72.2146Z" fill="#CA73FF"/>
<path d="M204.171 41.2503C203.731 41.5329 203.015 39.8184 202.951 39.5735C202.593 38.2358 201.731 36.7474 202.575 35.3627C202.828 34.9998 203.163 34.7055 203.551 34.5053C203.94 34.3051 204.37 34.2049 204.804 34.2134C205.722 34.4018 206.272 35.438 206.529 36.2764C206.806 37.0277 207.039 37.7953 207.226 38.575C207.355 39.2909 206.979 39.517 206.428 39.8373L204.171 41.2503Z" fill="#F4A28C"/>
<path d="M200.061 78.7903C200.061 78.7903 204.648 57.3969 202.694 41.3071L207.226 38.5752C207.226 38.5752 215.007 68.1642 206.593 95.7562L200.061 78.7903Z" fill="#CA73FF"/>
<path opacity="0.46" d="M171.426 72.2146C171.426 72.2146 169.884 50.3596 174.05 34.7219L169.958 31.3589C169.958 31.3589 158.113 59.4972 162.618 88.0406L171.426 72.2146Z" fill="white"/>
<path opacity="0.46" d="M200.061 78.7903C200.061 78.7903 204.648 57.3969 202.694 41.3071L207.226 38.5752C207.226 38.5752 215.007 68.1642 206.593 95.7562L200.061 78.7903Z" fill="white"/>
<path d="M207.236 90.0659C205.502 108.906 195.693 124.648 195.693 124.648L172.077 123.272C172.077 123.272 146.387 71.4044 179.417 70.6602H180.876H185.968C187.453 70.732 188.931 70.9146 190.39 71.2065C191.124 71.3478 191.913 71.5268 192.748 71.7435C193.936 72.055 195.103 72.442 196.244 72.9022C202.125 75.2478 208.153 80.0993 207.236 90.0659Z" fill="#CA73FF"/>
<path d="M196.978 130.526L195.684 124.648L172.068 123.272L171.426 130.526H196.978Z" fill="#24285B"/>
<path opacity="0.08" d="M196.262 72.8834C195.712 76.5291 194.336 80.2878 191.079 81.8139C183.922 85.1581 183.014 77.895 183.014 77.895C182.096 76.4255 183.014 73.6371 184.473 70.9429L189.565 71.103C189.565 71.103 189.858 71.103 190.381 71.1878C191.115 71.3291 191.904 71.5081 192.739 71.7248C193.936 72.0352 195.113 72.4221 196.262 72.8834Z" fill="black"/>
<path d="M181.821 69.6809C182.089 70.7035 182.297 71.7415 182.445 72.7895C182.637 74.2214 183.307 76.3221 185.564 76.5011C189.051 76.7837 189.39 71.141 189.39 71.141C189.39 71.141 191.014 65.7055 187.243 65.3852C183.839 65.1026 180.656 64.9802 181.821 69.6809Z" fill="#F4A28C"/>
<path d="M189.198 71.3481C189.198 71.3481 189.198 69.6431 190.666 69.5583C192.134 69.4735 191.859 72.7235 189.198 71.3481Z" fill="#F4A28C"/>
<path d="M182.803 71.1218C182.803 71.1218 183.142 69.4544 181.748 69.0493C180.353 68.6443 179.922 71.8377 182.803 71.1218Z" fill="#F4A28C"/>
<path d="M181.821 69.6806C181.821 69.6806 176.197 69.4639 178.252 64.9705C180.307 60.477 181.17 63.5951 182.005 60.2603C182.84 56.9256 183.84 56.1531 185.675 57.3495C187.51 58.5458 186.161 61.6263 188.675 60.5335C191.189 59.4408 192.877 58.4893 193.593 60.6466C194.308 62.8038 193.932 63.906 192.336 64.8386C190.739 65.7712 193.666 68.4654 189.583 70.1233C185.5 71.7813 182.849 67.2973 182.849 67.2973L181.821 69.6806Z" fill="#24285B"/>
<path d="M249.707 109.481V164.27C249.715 170.928 248.444 177.522 245.967 183.675C243.489 189.828 239.853 195.418 235.268 200.126C230.683 204.834 225.238 208.567 219.245 211.111C213.253 213.654 206.83 214.959 200.345 214.951H166.618C160.135 214.953 153.715 213.644 147.725 211.098C141.736 208.552 136.293 204.819 131.709 200.112C127.125 195.405 123.489 189.817 121.009 183.667C118.529 177.517 117.254 170.926 117.257 164.27V109.481H249.707Z" fill="#FFD200"/>
<path d="M195.932 201.489H171.022V249.589H195.932V201.489Z" fill="#FFD200"/>
<path d="M223.907 240.687H143.047V256.607H223.907V240.687Z" fill="#24285B"/>
<path d="M117.926 172.606H110.027C104.007 172.483 98.2745 169.941 94.0598 165.526C89.8451 161.112 87.4844 155.176 87.4844 148.995C87.4844 142.813 89.8451 136.877 94.0598 132.463C98.2745 128.048 104.007 125.506 110.027 125.383H117.257V115.962H110.027C101.588 116.109 93.5435 119.653 87.6264 125.832C81.7092 132.011 78.3933 140.329 78.3933 148.995C78.3933 157.66 81.7092 165.978 87.6264 172.157C93.5435 178.336 101.588 181.88 110.027 182.027H120.367C119.26 178.975 118.443 175.82 117.926 172.606Z" fill="#FFD200"/>
<path d="M256.9 115.962H249.67V125.383H256.9C262.92 125.506 268.652 128.048 272.867 132.463C277.082 136.877 279.442 142.813 279.442 148.995C279.442 155.176 277.082 161.112 272.867 165.526C268.652 169.941 262.92 172.483 256.9 172.606H249C248.484 175.82 247.667 178.975 246.56 182.027H256.9C265.339 181.88 273.383 178.336 279.3 172.157C285.218 165.978 288.533 157.66 288.533 148.995C288.533 140.329 285.218 132.011 279.3 125.832C273.383 119.653 265.339 116.109 256.9 115.962Z" fill="#FFD200"/>
<path opacity="0.3" d="M128.955 172.663C129.386 177.062 129.872 181.518 131.441 185.653C133.202 190.235 136.123 194.251 139.903 197.285C143.682 200.319 148.182 202.261 152.938 202.911C155.397 203.213 158.608 202.6 159.085 200.085C159.425 198.333 158.168 196.731 157.021 195.375C146.855 182.648 146.194 164.627 147.736 148.274C148.222 143.111 148.873 137.911 148.323 132.758C147.772 127.606 145.846 122.396 142.001 119.043C139.332 116.706 134.469 114.577 131.368 117.224C130.106 118.426 129.187 119.956 128.707 121.652C127.303 125.901 127.331 130.375 127.588 134.84C127.789 138.288 127.065 141.51 127.165 144.986C127.453 154.205 128.049 163.431 128.955 172.663Z" fill="white"/>
<path d="M115.197 202.673L97.5913 198.19L96.3632 203.274L113.969 207.757L115.197 202.673Z" fill="#F2F2F2"/>
<path d="M154.113 221.36L136.241 224.546L137.114 229.706L154.985 226.52L154.113 221.36Z" fill="#F2F2F2"/>
<path d="M250.369 212.608L234.09 220.822L236.34 225.523L252.619 217.309L250.369 212.608Z" fill="#F2F2F2"/>
<path d="M107.066 95.8229L97.572 100.613L98.8831 103.353L108.377 98.5622L107.066 95.8229Z" fill="#F2F2F2"/>
<path d="M98.9619 71.9457L88.6011 69.7524L88.0008 72.7417L98.3616 74.935L98.9619 71.9457Z" fill="#F2F2F2"/>
<path d="M281.293 105.431L270.932 103.237L270.332 106.227L280.692 108.42L281.293 105.431Z" fill="#F2F2F2"/>
<path d="M260.308 64.9971L251.463 70.9556L253.094 73.5075L261.939 67.549L260.308 64.9971Z" fill="#F2F2F2"/>
<path d="M277.613 191.676L259.484 192.293L259.654 197.528L277.783 196.911L277.613 191.676Z" fill="#F2F2F2"/>
<path opacity="0.43" d="M184.977 133.192L191.932 147.652C192.049 147.9 192.222 148.115 192.438 148.28C192.654 148.444 192.905 148.552 193.17 148.594L208.713 150.911C209.018 150.957 209.305 151.089 209.54 151.292C209.776 151.496 209.952 151.764 210.047 152.065C210.143 152.366 210.154 152.688 210.081 152.995C210.007 153.302 209.851 153.582 209.63 153.803L198.382 165.051C198.191 165.245 198.048 165.483 197.965 165.745C197.882 166.008 197.861 166.286 197.905 166.559L200.565 182.441C200.618 182.753 200.584 183.074 200.468 183.367C200.353 183.66 200.159 183.914 199.91 184.1C199.661 184.286 199.366 184.397 199.059 184.42C198.751 184.444 198.444 184.378 198.171 184.231L184.271 176.695C184.034 176.564 183.769 176.496 183.5 176.496C183.231 176.496 182.966 176.564 182.729 176.695L168.829 184.231C168.556 184.378 168.249 184.444 167.941 184.42C167.634 184.397 167.339 184.286 167.09 184.1C166.841 183.914 166.647 183.66 166.532 183.367C166.416 183.074 166.382 182.753 166.434 182.441L169.095 166.559C169.139 166.286 169.118 166.008 169.035 165.745C168.952 165.483 168.809 165.245 168.618 165.051L157.37 153.803C157.149 153.582 156.993 153.302 156.919 152.995C156.846 152.688 156.857 152.366 156.953 152.065C157.048 151.764 157.224 151.496 157.459 151.292C157.695 151.089 157.982 150.957 158.287 150.911L173.83 148.594C174.095 148.552 174.346 148.444 174.562 148.28C174.777 148.115 174.951 147.9 175.068 147.652L182.023 133.192C182.157 132.907 182.367 132.667 182.629 132.5C182.89 132.332 183.192 132.243 183.5 132.243C183.808 132.243 184.11 132.332 184.371 132.5C184.633 132.667 184.842 132.907 184.977 133.192Z" fill="white"/>
</svg>
