<svg width="26" height="32" viewBox="0 0 26 32" fill="none" xmlns="http://www.w3.org/2000/svg">
<path d="M13.0062 15.8777C16.8384 15.8777 19.945 12.771 19.945 8.93883C19.945 5.10662 16.8384 2 13.0062 2C9.174 2 6.06738 5.10662 6.06738 8.93883C6.06738 12.771 9.174 15.8777 13.0062 15.8777Z" stroke="white" stroke-width="2.5" stroke-linecap="round" stroke-linejoin="round"/>
<path fill-rule="evenodd" clip-rule="evenodd" d="M2.00002 25.5284C1.99816 25.0406 2.10725 24.5588 2.31905 24.1194C2.98369 22.7901 4.85797 22.0856 6.41323 21.7665C7.53488 21.5272 8.67202 21.3673 9.81618 21.288C11.9345 21.1019 14.0651 21.1019 16.1834 21.288C17.3275 21.3682 18.4646 21.5281 19.5864 21.7665C21.1416 22.0856 23.0159 22.7236 23.6805 24.1194C24.1065 25.0151 24.1065 26.055 23.6805 26.9507C23.0159 28.3465 21.1416 28.9845 19.5864 29.2903C18.466 29.5395 17.3285 29.7039 16.1834 29.7821C14.4593 29.9282 12.7271 29.9549 10.9992 29.8618C10.6005 29.8618 10.215 29.8618 9.81618 29.7821C8.6754 29.7049 7.5422 29.5405 6.42652 29.2903C4.85797 28.9845 2.99698 28.3465 2.31905 26.9507C2.10833 26.5062 1.99935 26.0203 2.00002 25.5284Z" stroke="white" stroke-width="2.5" stroke-linecap="round" stroke-linejoin="round"/>
</svg>
