<svg width="36" height="36" viewBox="0 0 36 36" fill="none" xmlns="http://www.w3.org/2000/svg">
<path d="M18 17.4538C20.4747 17.4538 22.554 15.2616 22.554 12.4252C22.554 9.65667 20.4521 7.53223 18 7.53223C15.5366 7.53223 13.4347 9.69057 13.4347 12.4478C13.446 15.2616 15.5253 17.4538 18 17.4538ZM17.9887 19.454C16.1468 19.454 14.5195 19.8721 13.1748 20.5162C14.7907 21.8835 15.8304 23.9176 15.8304 26.1776C15.8304 26.7878 15.7513 27.398 15.5931 27.963H25.04C26.8933 27.963 27.5374 27.398 27.5374 26.3584C27.5374 23.4542 23.8535 19.454 17.9887 19.454ZM8.39481 32.0085C11.5589 32.0085 14.2257 29.3643 14.2257 26.1776C14.2257 22.9909 11.5928 20.358 8.39481 20.358C5.20815 20.358 2.5752 22.9909 2.5752 26.1776C2.5752 29.3756 5.20815 32.0085 8.39481 32.0085ZM4.71094 26.1776C4.69964 25.7143 5.01604 25.4092 5.47935 25.4092H7.6264V23.2734C7.6264 22.8101 7.9315 22.4937 8.39481 22.4937C8.86942 22.4937 9.17453 22.8101 9.17453 23.2734V25.4092H11.3103C11.7736 25.4092 12.09 25.7143 12.09 26.1776C12.09 26.6522 11.7736 26.9573 11.3103 26.9573H9.17453V29.1044C9.17453 29.5677 8.86942 29.8728 8.39481 29.8728C7.9315 29.8728 7.6264 29.5677 7.6264 29.1044V26.9573H5.47935C5.02734 26.9573 4.71094 26.6522 4.71094 26.1776Z" fill="white"/>
</svg>
