<svg width="85" height="78" viewBox="0 0 85 78" fill="none" xmlns="http://www.w3.org/2000/svg">
<path opacity="0.9" d="M48.31 53.0591C40.7657 57.3877 30.3924 57.8324 19.9561 53.3898C11.506 49.819 4.4946 43.5685 0 36.427C2.15742 38.2124 4.67436 39.6413 7.37106 40.8905C18.1488 45.9079 28.9243 45.5643 36.5074 40.9033C25.7203 32.6892 16.54 21.9624 9.70856 13.2137C8.26969 11.785 7.19098 9.99932 6.11227 8.39231C14.3823 15.8919 27.5071 25.3551 32.1805 28.0348C22.2937 17.6773 13.4836 4.82152 13.8425 5.17796C29.4841 20.8917 44.0474 29.8202 44.0474 29.8202C44.5291 30.09 44.9009 30.3147 45.2 30.5154C45.5152 29.7191 45.7916 28.8922 46.0244 28.0348C48.5414 18.928 45.6656 8.57052 39.3724 0C53.9341 8.74955 62.5648 25.1769 58.968 38.927C58.8742 39.2979 58.7724 39.664 58.6625 40.0236C65.8528 48.9522 64.0019 58.5695 63.1031 56.7841C59.2024 49.2026 51.9812 51.5209 48.31 53.0591Z" fill="#00DAFA"/>
<path opacity="0.9" d="M55.31 60.0591C47.7657 64.3877 37.3924 64.8324 26.9561 60.3898C18.506 56.819 11.4946 50.5685 7 43.427C9.15742 45.2124 11.6744 46.6413 14.3711 47.8905C25.1488 52.9079 35.9243 52.5643 43.5074 47.9033C32.7203 39.6892 23.54 28.9624 16.7086 20.2137C15.2697 18.785 14.191 16.9993 13.1123 15.3923C21.3823 22.8919 34.5071 32.3551 39.1805 35.0348C29.2937 24.6773 20.4836 11.8215 20.8425 12.178C36.4841 27.8917 51.0474 36.8202 51.0474 36.8202C51.5291 37.09 51.9009 37.3147 52.2 37.5154C52.5152 36.7191 52.7916 35.8922 53.0244 35.0348C55.5414 25.928 52.6656 15.5705 46.3724 7C60.9341 15.7495 69.5648 32.1769 65.968 45.927C65.8742 46.2979 65.7724 46.664 65.6625 47.0236C72.8528 55.9522 71.0019 65.5695 70.1031 63.7841C66.2024 56.2026 58.9812 58.5209 55.31 60.0591Z" fill="#0599FF"/>
<path opacity="0.9" d="M62.31 67.0591C54.7657 71.3877 44.3924 71.8324 33.9561 67.3898C25.506 63.819 18.4946 57.5685 14 50.427C16.1574 52.2124 18.6744 53.6413 21.3711 54.8905C32.1488 59.9079 42.9243 59.5643 50.5074 54.9033C39.7203 46.6892 30.54 35.9624 23.7086 27.2137C22.2697 25.785 21.191 23.9993 20.1123 22.3923C28.3823 29.8919 41.5071 39.3551 46.1805 42.0348C36.2937 31.6773 27.4836 18.8215 27.8425 19.178C43.4841 34.8917 58.0474 43.8202 58.0474 43.8202C58.5291 44.09 58.9009 44.3147 59.2 44.5154C59.5152 43.7191 59.7916 42.8922 60.0244 42.0348C62.5414 32.928 59.6656 22.5705 53.3724 14C67.9341 22.7495 76.5648 39.1769 72.968 52.927C72.8742 53.2979 72.7724 53.664 72.6625 54.0236C79.8528 62.9522 78.0019 72.5695 77.1031 70.7841C73.2024 63.2026 65.9812 65.5209 62.31 67.0591Z" fill="#0F51DB"/>
<path d="M69.31 74.0591C61.7657 78.3877 51.3924 78.8324 40.9561 74.3898C32.506 70.819 25.4946 64.5685 21 57.427C23.1574 59.2124 25.6744 60.6413 28.3711 61.8905C39.1488 66.9079 49.9243 66.5643 57.5074 61.9033C46.7203 53.6892 37.54 42.9624 30.7086 34.2137C29.2697 32.785 28.191 30.9993 27.1123 29.3923C35.3823 36.8919 48.5071 46.3551 53.1805 49.0348C43.2937 38.6773 34.4836 25.8215 34.8425 26.178C50.4841 41.8917 65.0474 50.8202 65.0474 50.8202C65.5291 51.09 65.9009 51.3147 66.2 51.5154C66.5152 50.7191 66.7916 49.8922 67.0244 49.0348C69.5414 39.928 66.6656 29.5705 60.3724 21C74.9341 29.7495 83.5648 46.1769 79.968 59.927C79.8742 60.2979 79.7724 60.664 79.6625 61.0236C86.8528 69.9522 85.0019 79.5695 84.1031 77.7841C80.2024 70.2026 72.9812 72.5209 69.31 74.0591Z" fill="#1D1D1D"/>
</svg>
