<svg width="4000" height="4000" viewBox="0 0 4000 4000" fill="none" xmlns="http://www.w3.org/2000/svg">
<rect width="4000" height="4000" transform="translate(4000) rotate(90)" fill="url(#paint0_linear_2_2)"/>
<g filter="url(#filter0_f_2_2)">
<ellipse cx="1990.11" cy="1868.89" rx="535.454" ry="527.329" fill="#D5D5D5"/>
</g>
<g filter="url(#filter1_ii_2_2)">
<ellipse cx="1981.92" cy="1875.5" rx="555.935" ry="547.5" fill="#F1F1F1"/>
</g>
<g opacity="0.85">
<g opacity="0.93">
<g filter="url(#filter2_f_2_2)">
<ellipse rx="93.1713" ry="52.2593" transform="matrix(0.825375 0.564585 -0.576352 0.817202 2230.13 1541.45)" fill="#DCDCDC"/>
</g>
<g filter="url(#filter3_di_2_2)">
<ellipse rx="93.1713" ry="52.2593" transform="matrix(0.825375 0.564585 -0.576352 0.817202 2239.37 1533.22)" fill="#F4F4F4"/>
</g>
</g>
<g opacity="0.93">
<g filter="url(#filter4_f_2_2)">
<ellipse rx="56.911" ry="31.9211" transform="matrix(0.825375 0.564585 -0.576352 0.817202 2247 1682.28)" fill="#DCDCDC"/>
</g>
<g filter="url(#filter5_di_2_2)">
<ellipse rx="56.911" ry="31.9211" transform="matrix(0.825375 0.564585 -0.576352 0.817202 2252.65 1677.26)" fill="#F4F4F4"/>
</g>
</g>
<g opacity="0.93">
<g filter="url(#filter6_f_2_2)">
<ellipse rx="36.6584" ry="20.5615" transform="matrix(0.825375 0.564585 -0.576352 0.817202 2135.96 1607.91)" fill="#DCDCDC"/>
</g>
<g filter="url(#filter7_di_2_2)">
<ellipse rx="36.6584" ry="20.5615" transform="matrix(0.825375 0.564585 -0.576352 0.817202 2139.6 1604.67)" fill="#F4F4F4"/>
</g>
</g>
</g>
<g filter="url(#filter8_df_2_2)">
<path d="M1327.87 1448.17L1338.6 1484.32L1375.3 1494.89L1338.6 1505.46L1327.87 1541.6L1317.13 1505.46L1280.43 1494.89L1317.13 1484.32L1327.87 1448.17Z" fill="#FFEDAD"/>
</g>
<g filter="url(#filter9_df_2_2)">
<path d="M1400.84 1381.1L1406.62 1400.56L1426.38 1406.25L1406.62 1411.94L1400.84 1431.41L1395.06 1411.94L1375.3 1406.25L1395.06 1400.56L1400.84 1381.1Z" fill="#FFEDAD"/>
</g>
<g filter="url(#filter10_df_2_2)">
<path d="M1303.54 1381.1L1309.32 1400.56L1329.08 1406.25L1309.32 1411.94L1303.54 1431.41L1297.76 1411.94L1278 1406.25L1297.76 1400.56L1303.54 1381.1Z" fill="#FFEDAD"/>
</g>
<path d="M2820.24 1940.41L2818.09 1939.91L2816.26 1937.42L2812.76 1924.21L2778.59 1910.16L2771.42 1901.52C2768.93 1900.05 2767.36 1900.96 2766.88 1901.59C2763.84 1907.9 2757.12 1907.79 2754.14 1906.94L2735.91 1902.76L2732.44 1912.63L2720.72 1903.41L2702.17 1898.52L2693.38 1900.17L2686.62 1902.75L2685.24 1916.12L2686.38 1918.13L2686.66 1916.93L2804.99 1944.07C2816.99 1947.46 2820.15 1943.04 2820.24 1940.41Z" fill="black"/>
<path d="M2774.36 1898.69C2770.56 1897.82 2769.2 1900.27 2768.99 1901.6L2777.89 1904.28L2778.28 1902.62C2778.56 1901.67 2778.17 1899.56 2774.36 1898.69Z" fill="black"/>
<path d="M2714.39 1898.78C2716.11 1898.03 2734 1894.21 2742.72 1892.39L2744.51 1894.39L2742.15 1896.87L2734.79 1899.96L2729.87 1902.33L2714.39 1898.78Z" fill="#92C6F7" fill-opacity="0.24"/>
<path d="M2743.28 1894.11L2728.64 1902.05L2727.74 1903.12L2732.65 1904.24L2736.68 1900.87L2741.19 1898.88L2746.31 1897.03C2748 1895.89 2746.58 1893.38 2745.66 1892.27L2742.72 1892.39L2743.28 1894.11Z" fill="black"/>
<path d="M2670.93 1909.66L2672.25 1904.07L2675.93 1904.92L2677.16 1909.97L2676.76 1913.7C2667.63 1911.86 2666.72 1909.7 2667.41 1908.85L2670.93 1909.66Z" fill="black"/>
<path d="M2732.85 1902.7L2707.87 1896.96C2696.88 1895.33 2686.95 1896.14 2683.36 1896.75C2670.86 1898.21 2668.45 1901.93 2668.81 1903.6L2672.34 1904.41L2675.91 1913.19L2685.51 1916.34C2686.23 1909.88 2691.08 1897.73 2704.69 1900.85C2718.3 1903.97 2716.48 1916.82 2713.86 1922.85L2779.68 1936.99C2783.22 1922.02 2793.33 1920.28 2797.94 1921.29C2812.53 1924.63 2811.86 1936.89 2809.7 1942.6L2816.68 1942.45L2821.85 1936.32L2823.75 1928.96L2822.61 1926.95C2822.56 1923.88 2821.68 1921.32 2821.25 1920.43L2822.61 1920.1L2822.79 1919.35L2807.93 1915.94C2798.32 1909.54 2778.93 1903.72 2770.43 1901.61C2767.51 1909.6 2756.55 1908.82 2751.44 1907.44L2736.42 1903.99C2736.56 1903.39 2736.97 1902.58 2737.16 1902.25C2738.3 1902.89 2739.83 1903.24 2740.46 1903.33C2740.72 1903.12 2741.31 1902.47 2741.53 1901.51C2741.76 1900.54 2741.55 1899.6 2741.42 1899.25C2739.52 1898.56 2736.79 1899.25 2735.66 1899.68L2732.85 1902.7Z" fill="url(#paint1_linear_2_2)"/>
<path d="M2816.08 1921.79L2821.25 1920.43C2823.07 1921.99 2822.89 1925.53 2822.58 1927.1L2819 1925.8L2816.08 1921.79Z" fill="black"/>
<ellipse rx="12.4228" ry="12.2536" transform="matrix(0.974684 0.223587 -0.230167 0.973151 2795.47 1936.48)" fill="black"/>
<path d="M2793.38 1945.31C2798.33 1946.45 2803.29 1943.42 2804.44 1938.53C2805.6 1933.64 2802.51 1928.77 2797.57 1927.64C2792.62 1926.5 2787.66 1929.53 2786.51 1934.42C2785.35 1939.31 2788.44 1944.18 2793.38 1945.31Z" fill="#171717" stroke="#555555" stroke-width="1.14675"/>
<mask id="mask0_2_2" style="mask-type:alpha" maskUnits="userSpaceOnUse" x="2786" y="1927" width="19" height="18">
<ellipse rx="8.62697" ry="8.50946" transform="matrix(0.974684 0.223588 -0.230166 0.973151 2795.47 1936.48)" fill="#828282"/>
</mask>
<g mask="url(#mask0_2_2)">
<rect width="18.2971" height="1.12799" transform="matrix(0.974684 0.223588 -0.230166 0.973151 2786.63 1933.79)" fill="#585858"/>
<rect width="18.0479" height="1.14357" transform="matrix(0.230166 -0.973151 0.974684 0.223588 2792.79 1945.04)" fill="#585858"/>
<rect width="18.2351" height="1.13191" transform="matrix(0.960871 -0.287291 0.29372 0.952806 2786.49 1938.47)" fill="#585858"/>
<rect width="18.1105" height="1.1397" transform="matrix(-0.293724 -0.952805 0.960871 -0.287288 2797.53 1945.18)" fill="#585858"/>
<rect width="18.1105" height="1.1397" transform="matrix(0.691001 -0.726916 0.733067 0.675873 2788.74 1942.59)" fill="#585858"/>
<rect width="18.2351" height="1.13191" transform="matrix(-0.733069 -0.675871 0.691003 -0.726913 2801.71 1942.96)" fill="#585858"/>
</g>
<ellipse rx="12.4228" ry="12.2536" transform="matrix(0.974684 0.223587 -0.230167 0.973151 2701.06 1914.82)" fill="black"/>
<path d="M2698.97 1923.66C2703.91 1924.79 2708.87 1921.76 2710.03 1916.87C2711.18 1911.99 2708.1 1907.11 2703.15 1905.98C2698.21 1904.84 2693.25 1907.87 2692.09 1912.76C2690.94 1917.65 2694.02 1922.52 2698.97 1923.66Z" fill="#414141" stroke="#BABABA" stroke-width="1.14675"/>
<mask id="mask1_2_2" style="mask-type:alpha" maskUnits="userSpaceOnUse" x="2692" y="1906" width="18" height="18">
<ellipse rx="8.62697" ry="8.50946" transform="matrix(0.974684 0.223587 -0.230167 0.973151 2701.06 1914.82)" fill="#828282"/>
</mask>
<g mask="url(#mask1_2_2)">
<rect width="18.2971" height="1.12799" transform="matrix(0.974684 0.223586 -0.230168 0.973151 2692.22 1912.14)" fill="#C4C4C4"/>
<rect width="18.0479" height="1.14357" transform="matrix(0.230168 -0.973151 0.974684 0.223586 2698.37 1923.38)" fill="#C4C4C4"/>
<rect width="18.2351" height="1.13191" transform="matrix(0.960873 -0.287289 0.293722 0.952804 2692.08 1916.81)" fill="#C4C4C4"/>
<rect width="18.1105" height="1.1397" transform="matrix(-0.293722 -0.952804 0.960873 -0.287289 2703.12 1923.52)" fill="#C4C4C4"/>
<rect width="18.1105" height="1.1397" transform="matrix(0.691005 -0.726914 0.733069 0.675868 2694.33 1920.93)" fill="#C4C4C4"/>
<rect width="18.2351" height="1.13191" transform="matrix(-0.733069 -0.675868 0.691005 -0.726914 2707.3 1921.3)" fill="#C4C4C4"/>
</g>
<path d="M2714.93 1917.68L2782.95 1931.37" stroke="black" stroke-width="0.573374"/>
<path d="M2727.18 1901.39C2725.57 1904.79 2722.77 1913.21 2724.46 1919.71L2761.96 1927.2L2773.16 1911.94C2772.85 1910.76 2772.86 1907.2 2775.41 1902.43" stroke="black" stroke-width="0.573374"/>
<path d="M2817.47 1922.74L2806.18 1926.04" stroke="black" stroke-width="0.573374"/>
<ellipse rx="4.87479" ry="4.80838" transform="matrix(0.974684 0.223587 -0.230167 0.973151 2760.7 1901.76)" fill="url(#paint2_linear_2_2)"/>
<mask id="mask2_2_2" style="mask-type:alpha" maskUnits="userSpaceOnUse" x="2755" y="1896" width="11" height="11">
<ellipse rx="4.87479" ry="4.80838" transform="matrix(0.974684 0.223587 -0.230167 0.973151 2760.7 1901.76)" fill="#C4C4C4"/>
</mask>
<g mask="url(#mask2_2_2)">
<path d="M2761.34 1901.12L2755.52 1899.78L2754.84 1902.65C2760.36 1903.91 2761.47 1902.15 2761.34 1901.12Z" fill="#1F1F1F"/>
</g>
<defs>
<filter id="filter0_f_2_2" x="559.178" y="446.075" width="2861.87" height="2845.62" filterUnits="userSpaceOnUse" color-interpolation-filters="sRGB">
<feFlood flood-opacity="0" result="BackgroundImageFix"/>
<feBlend mode="normal" in="SourceGraphic" in2="BackgroundImageFix" result="shape"/>
<feGaussianBlur stdDeviation="447.741" result="effect1_foregroundBlur_2_2"/>
</filter>
<filter id="filter1_ii_2_2" x="1425.98" y="1120.12" width="1344.07" height="1302.88" filterUnits="userSpaceOnUse" color-interpolation-filters="sRGB">
<feFlood flood-opacity="0" result="BackgroundImageFix"/>
<feBlend mode="normal" in="SourceGraphic" in2="BackgroundImageFix" result="shape"/>
<feColorMatrix in="SourceAlpha" type="matrix" values="0 0 0 0 0 0 0 0 0 0 0 0 0 0 0 0 0 0 127 0" result="hardAlpha"/>
<feMorphology radius="34.8293" operator="dilate" in="SourceAlpha" result="effect1_innerShadow_2_2"/>
<feOffset dx="298.494" dy="-207.88"/>
<feGaussianBlur stdDeviation="133.512"/>
<feComposite in2="hardAlpha" operator="arithmetic" k2="-1" k3="1"/>
<feColorMatrix type="matrix" values="0 0 0 0 0 0 0 0 0 0 0 0 0 0 0 0 0 0 0.28 0"/>
<feBlend mode="normal" in2="shape" result="effect1_innerShadow_2_2"/>
<feColorMatrix in="SourceAlpha" type="matrix" values="0 0 0 0 0 0 0 0 0 0 0 0 0 0 0 0 0 0 127 0" result="hardAlpha"/>
<feOffset dx="15.9908" dy="-31.9815"/>
<feGaussianBlur stdDeviation="29.3164"/>
<feComposite in2="hardAlpha" operator="arithmetic" k2="-1" k3="1"/>
<feColorMatrix type="matrix" values="0 0 0 0 1 0 0 0 0 1 0 0 0 0 1 0 0 0 0.41 0"/>
<feBlend mode="normal" in2="effect1_innerShadow_2_2" result="effect2_innerShadow_2_2"/>
</filter>
<filter id="filter2_f_2_2" x="2115.54" y="1441.71" width="229.186" height="199.48" filterUnits="userSpaceOnUse" color-interpolation-filters="sRGB">
<feFlood flood-opacity="0" result="BackgroundImageFix"/>
<feBlend mode="normal" in="SourceGraphic" in2="BackgroundImageFix" result="shape"/>
<feGaussianBlur stdDeviation="15.9908" result="effect1_foregroundBlur_2_2"/>
</filter>
<filter id="filter3_di_2_2" x="2140.77" y="1465.47" width="181.214" height="167.499" filterUnits="userSpaceOnUse" color-interpolation-filters="sRGB">
<feFlood flood-opacity="0" result="BackgroundImageFix"/>
<feColorMatrix in="SourceAlpha" type="matrix" values="0 0 0 0 0 0 0 0 0 0 0 0 0 0 0 0 0 0 127 0" result="hardAlpha"/>
<feOffset dx="-5.33025" dy="5.33025"/>
<feGaussianBlur stdDeviation="2.66513"/>
<feComposite in2="hardAlpha" operator="out"/>
<feColorMatrix type="matrix" values="0 0 0 0 1 0 0 0 0 1 0 0 0 0 1 0 0 0 0.69 0"/>
<feBlend mode="normal" in2="BackgroundImageFix" result="effect1_dropShadow_2_2"/>
<feBlend mode="normal" in="SourceGraphic" in2="effect1_dropShadow_2_2" result="shape"/>
<feColorMatrix in="SourceAlpha" type="matrix" values="0 0 0 0 0 0 0 0 0 0 0 0 0 0 0 0 0 0 127 0" result="hardAlpha"/>
<feOffset dx="-15.9908" dy="31.9815"/>
<feGaussianBlur stdDeviation="47.9723"/>
<feComposite in2="hardAlpha" operator="arithmetic" k2="-1" k3="1"/>
<feColorMatrix type="matrix" values="0 0 0 0 0 0 0 0 0 0 0 0 0 0 0 0 0 0 0.15 0"/>
<feBlend mode="normal" in2="shape" result="effect2_innerShadow_2_2"/>
</filter>
<filter id="filter4_f_2_2" x="2164.56" y="1608.91" width="164.885" height="146.74" filterUnits="userSpaceOnUse" color-interpolation-filters="sRGB">
<feFlood flood-opacity="0" result="BackgroundImageFix"/>
<feBlend mode="normal" in="SourceGraphic" in2="BackgroundImageFix" result="shape"/>
<feGaussianBlur stdDeviation="15.9908" result="effect1_foregroundBlur_2_2"/>
</filter>
<filter id="filter5_di_2_2" x="2186.2" y="1635.87" width="116.912" height="114.758" filterUnits="userSpaceOnUse" color-interpolation-filters="sRGB">
<feFlood flood-opacity="0" result="BackgroundImageFix"/>
<feColorMatrix in="SourceAlpha" type="matrix" values="0 0 0 0 0 0 0 0 0 0 0 0 0 0 0 0 0 0 127 0" result="hardAlpha"/>
<feOffset dx="-5.33025" dy="5.33025"/>
<feGaussianBlur stdDeviation="2.66513"/>
<feComposite in2="hardAlpha" operator="out"/>
<feColorMatrix type="matrix" values="0 0 0 0 1 0 0 0 0 1 0 0 0 0 1 0 0 0 0.69 0"/>
<feBlend mode="normal" in2="BackgroundImageFix" result="effect1_dropShadow_2_2"/>
<feBlend mode="normal" in="SourceGraphic" in2="effect1_dropShadow_2_2" result="shape"/>
<feColorMatrix in="SourceAlpha" type="matrix" values="0 0 0 0 0 0 0 0 0 0 0 0 0 0 0 0 0 0 127 0" result="hardAlpha"/>
<feOffset dx="-15.9908" dy="31.9815"/>
<feGaussianBlur stdDeviation="47.9723"/>
<feComposite in2="hardAlpha" operator="arithmetic" k2="-1" k3="1"/>
<feColorMatrix type="matrix" values="0 0 0 0 0 0 0 0 0 0 0 0 0 0 0 0 0 0 0.15 0"/>
<feBlend mode="normal" in2="shape" result="effect2_innerShadow_2_2"/>
</filter>
<filter id="filter6_f_2_2" x="2082.86" y="1560.65" width="106.208" height="94.5203" filterUnits="userSpaceOnUse" color-interpolation-filters="sRGB">
<feFlood flood-opacity="0" result="BackgroundImageFix"/>
<feBlend mode="normal" in="SourceGraphic" in2="BackgroundImageFix" result="shape"/>
<feGaussianBlur stdDeviation="10.3002" result="effect1_foregroundBlur_2_2"/>
</filter>
<filter id="filter7_di_2_2" x="2096.79" y="1578.01" width="75.3075" height="73.9198" filterUnits="userSpaceOnUse" color-interpolation-filters="sRGB">
<feFlood flood-opacity="0" result="BackgroundImageFix"/>
<feColorMatrix in="SourceAlpha" type="matrix" values="0 0 0 0 0 0 0 0 0 0 0 0 0 0 0 0 0 0 127 0" result="hardAlpha"/>
<feOffset dx="-3.4334" dy="3.4334"/>
<feGaussianBlur stdDeviation="1.7167"/>
<feComposite in2="hardAlpha" operator="out"/>
<feColorMatrix type="matrix" values="0 0 0 0 1 0 0 0 0 1 0 0 0 0 1 0 0 0 0.69 0"/>
<feBlend mode="normal" in2="BackgroundImageFix" result="effect1_dropShadow_2_2"/>
<feBlend mode="normal" in="SourceGraphic" in2="effect1_dropShadow_2_2" result="shape"/>
<feColorMatrix in="SourceAlpha" type="matrix" values="0 0 0 0 0 0 0 0 0 0 0 0 0 0 0 0 0 0 127 0" result="hardAlpha"/>
<feOffset dx="-10.3002" dy="20.6004"/>
<feGaussianBlur stdDeviation="30.9006"/>
<feComposite in2="hardAlpha" operator="arithmetic" k2="-1" k3="1"/>
<feColorMatrix type="matrix" values="0 0 0 0 0 0 0 0 0 0 0 0 0 0 0 0 0 0 0.15 0"/>
<feBlend mode="normal" in2="shape" result="effect2_innerShadow_2_2"/>
</filter>
<filter id="filter8_df_2_2" x="1213.96" y="1399.43" width="227.806" height="226.367" filterUnits="userSpaceOnUse" color-interpolation-filters="sRGB">
<feFlood flood-opacity="0" result="BackgroundImageFix"/>
<feColorMatrix in="SourceAlpha" type="matrix" values="0 0 0 0 0 0 0 0 0 0 0 0 0 0 0 0 0 0 127 0" result="hardAlpha"/>
<feOffset dy="17.7252"/>
<feGaussianBlur stdDeviation="33.2347"/>
<feComposite in2="hardAlpha" operator="out"/>
<feColorMatrix type="matrix" values="0 0 0 0 1 0 0 0 0 1 0 0 0 0 1 0 0 0 1 0"/>
<feBlend mode="normal" in2="BackgroundImageFix" result="effect1_dropShadow_2_2"/>
<feBlend mode="normal" in="SourceGraphic" in2="effect1_dropShadow_2_2" result="shape"/>
<feGaussianBlur stdDeviation="13.2939" result="effect2_foregroundBlur_2_2"/>
</filter>
<filter id="filter9_df_2_2" x="1339.51" y="1354.85" width="122.665" height="121.89" filterUnits="userSpaceOnUse" color-interpolation-filters="sRGB">
<feFlood flood-opacity="0" result="BackgroundImageFix"/>
<feColorMatrix in="SourceAlpha" type="matrix" values="0 0 0 0 0 0 0 0 0 0 0 0 0 0 0 0 0 0 127 0" result="hardAlpha"/>
<feOffset dy="9.54433"/>
<feGaussianBlur stdDeviation="17.8956"/>
<feComposite in2="hardAlpha" operator="out"/>
<feColorMatrix type="matrix" values="0 0 0 0 1 0 0 0 0 1 0 0 0 0 1 0 0 0 1 0"/>
<feBlend mode="normal" in2="BackgroundImageFix" result="effect1_dropShadow_2_2"/>
<feBlend mode="normal" in="SourceGraphic" in2="effect1_dropShadow_2_2" result="shape"/>
<feGaussianBlur stdDeviation="7.15825" result="effect2_foregroundBlur_2_2"/>
</filter>
<filter id="filter10_df_2_2" x="1242.21" y="1354.85" width="122.665" height="121.89" filterUnits="userSpaceOnUse" color-interpolation-filters="sRGB">
<feFlood flood-opacity="0" result="BackgroundImageFix"/>
<feColorMatrix in="SourceAlpha" type="matrix" values="0 0 0 0 0 0 0 0 0 0 0 0 0 0 0 0 0 0 127 0" result="hardAlpha"/>
<feOffset dy="9.54433"/>
<feGaussianBlur stdDeviation="17.8956"/>
<feComposite in2="hardAlpha" operator="out"/>
<feColorMatrix type="matrix" values="0 0 0 0 1 0 0 0 0 1 0 0 0 0 1 0 0 0 1 0"/>
<feBlend mode="normal" in2="BackgroundImageFix" result="effect1_dropShadow_2_2"/>
<feBlend mode="normal" in="SourceGraphic" in2="effect1_dropShadow_2_2" result="shape"/>
<feGaussianBlur stdDeviation="7.15825" result="effect2_foregroundBlur_2_2"/>
</filter>
<linearGradient id="paint0_linear_2_2" x1="5915.97" y1="-2893.11" x2="2421.46" y2="4923.79" gradientUnits="userSpaceOnUse">
<stop stop-color="#071945"/>
<stop offset="1" stop-color="#071332"/>
</linearGradient>
<linearGradient id="paint1_linear_2_2" x1="2682.04" y1="1905.4" x2="2796" y2="1927.44" gradientUnits="userSpaceOnUse">
<stop stop-color="#B60202"/>
<stop offset="1" stop-color="#4B0202"/>
</linearGradient>
<linearGradient id="paint2_linear_2_2" x1="-1.17233" y1="6.2665" x2="12.9058" y2="2.94201" gradientUnits="userSpaceOnUse">
<stop stop-color="white"/>
<stop offset="1" stop-color="white" stop-opacity="0"/>
</linearGradient>
</defs>
</svg>
