<svg width="22" height="22" viewBox="0 0 22 22" fill="none" xmlns="http://www.w3.org/2000/svg">
<path fill-rule="evenodd" clip-rule="evenodd" d="M11 0C17.0751 0 22 4.92487 22 11C22 17.0751 17.0751 22 11 22C4.92487 22 0 17.0751 0 11C0 4.92487 4.92487 0 11 0ZM17.953 5.60527L5.60527 17.953C7.09523 19.1108 8.96723 19.8002 11.0002 19.8002C15.8604 19.8002 19.8002 15.8604 19.8002 11.0002C19.8002 8.96723 19.1108 7.09523 17.953 5.60527ZM11 2.2C6.13989 2.2 2.2 6.13989 2.2 11C2.2 13.033 2.88941 14.905 4.0472 16.395L16.395 4.0472C14.905 2.88941 13.033 2.2 11 2.2Z" fill="url(#paint0_linear_537_378)"/>
<defs>
<linearGradient id="paint0_linear_537_378" x1="11" y1="0" x2="11" y2="22" gradientUnits="userSpaceOnUse">
<stop stop-color="#5CC6FE"/>
<stop offset="1" stop-color="#CA73FF"/>
</linearGradient>
</defs>
</svg>
