<svg width="28" height="13" viewBox="0 0 28 13" fill="none" xmlns="http://www.w3.org/2000/svg">
<path fill-rule="evenodd" clip-rule="evenodd" d="M6.125 2.625C4.22487 2.625 2.625 4.22487 2.625 6.125C2.625 8.02513 4.22487 9.625 6.125 9.625C7.04406 9.625 8.0885 9.19795 9.31892 8.35203C10.2102 7.73927 11.1122 6.96951 12.0509 6.125C11.1122 5.28049 10.2102 4.51073 9.31892 3.89797C8.0885 3.05205 7.04406 2.625 6.125 2.625ZM14 4.34773C12.9682 3.41365 11.8932 2.48225 10.8061 1.73485C9.4115 0.776073 7.83094 0 6.125 0C2.77513 0 0 2.77513 0 6.125C0 9.47487 2.77513 12.25 6.125 12.25C7.83094 12.25 9.4115 11.4739 10.8061 10.5152C11.8932 9.7678 12.9682 8.83635 14 7.90227C15.0318 8.83635 16.1068 9.7678 17.1939 10.5152C18.5885 11.4739 20.1691 12.25 21.875 12.25C25.2248 12.25 28 9.47487 28 6.125C28 2.77513 25.2248 0 21.875 0C20.1691 0 18.5885 0.776073 17.1939 1.73485C16.1068 2.48225 15.0318 3.41365 14 4.34773ZM15.9491 6.125C16.8878 6.96951 17.7898 7.73927 18.6811 8.35203C19.9115 9.19795 20.9559 9.625 21.875 9.625C23.7752 9.625 25.375 8.02513 25.375 6.125C25.375 4.22487 23.7752 2.625 21.875 2.625C20.9559 2.625 19.9115 3.05205 18.6811 3.89797C17.7898 4.51073 16.8878 5.28049 15.9491 6.125Z" fill="url(#paint0_linear_537_370)"/>
<defs>
<linearGradient id="paint0_linear_537_370" x1="14" y1="0" x2="14" y2="12.25" gradientUnits="userSpaceOnUse">
<stop stop-color="#5CC6FE"/>
<stop offset="1" stop-color="#CA73FF"/>
</linearGradient>
</defs>
</svg>
