<svg width="88" height="75" viewBox="0 0 88 75" fill="none" xmlns="http://www.w3.org/2000/svg">
<path d="M43.07 15.3318C43.0387 16.2211 43.1466 17.1026 43.1814 17.9979C43.2082 18.329 43.1793 18.6628 43.0961 18.9817C42.9012 19.5956 42.3723 19.9793 41.8781 20.3177C41.5649 20.5322 41.2082 20.8391 41.2517 21.2523C41.2818 21.4081 41.3557 21.5486 41.4623 21.6529C41.569 21.7572 41.7026 21.8196 41.8433 21.8308C42.1253 21.845 42.4063 21.783 42.6628 21.6498C43.1879 21.4567 43.669 21.1356 44.0723 20.7093C44.8605 19.7825 44.8866 18.3481 44.8274 17.0633C44.777 15.985 44.6952 14.8005 44.2115 13.8403C43.4319 12.3055 43.0978 14.5624 43.07 15.3318Z" fill="#CA73FF"/>
<path d="M43.07 15.3318C43.0387 16.2211 43.1466 17.1026 43.1814 17.9979C43.2082 18.329 43.1793 18.6628 43.0961 18.9817C42.9012 19.5956 42.3723 19.9793 41.8781 20.3177C41.5649 20.5322 41.2082 20.8391 41.2517 21.2523C41.2818 21.4081 41.3557 21.5486 41.4623 21.6529C41.569 21.7572 41.7026 21.8196 41.8433 21.8308C42.1253 21.845 42.4063 21.783 42.6628 21.6498C43.1879 21.4567 43.669 21.1356 44.0723 20.7093C44.8605 19.7825 44.8866 18.3481 44.8274 17.0633C44.777 15.985 44.6952 14.8005 44.2115 13.8403C43.4319 12.3055 43.0978 14.5624 43.07 15.3318Z" fill="url(#paint0_linear_269_1225)"/>
<path d="M40.7452 20.664C40.385 20.5223 40.0022 20.3295 39.642 20.4672C39.6076 20.476 39.5756 20.4939 39.5486 20.5196C39.5217 20.5453 39.5006 20.578 39.4872 20.6148C39.4796 20.6689 39.4863 20.7243 39.5063 20.7742L39.9239 22.1732C39.9428 22.2428 39.9703 22.3091 40.0057 22.3699C40.0887 22.4768 40.2007 22.5495 40.3241 22.5765C40.7775 22.7182 41.2591 22.6927 41.6988 22.5037C42.1546 22.307 42.1947 21.6734 41.9528 21.2287C41.7109 20.784 41.1628 20.8273 40.7452 20.664Z" fill="url(#paint1_linear_269_1225)"/>
<path d="M39.8961 18.1356C40.0144 18.1691 39.9692 18.2478 39.9814 18.3835C40.0632 19.2454 39.9936 20.2154 40.1554 21.0595C40.3172 21.9036 40.8149 22.6513 40.9071 23.5131C40.5399 22.6631 40.2111 21.8564 40.0249 20.9237C39.9918 20.6935 39.7169 18.1356 39.8961 18.1356Z" fill="#3E3E54"/>
<path d="M43.0403 26.2127C43.0403 26.2127 39.5846 30.8799 41.8884 34.8801C44.1922 38.8803 48.2795 41.8553 49.8351 44.8815C51.3907 47.9078 48.5684 51.1898 47.5887 51.8037C46.6091 52.4176 37.6844 59.8572 43.2125 67.4974H61.871C61.871 67.4974 67.9176 60.5753 57.8393 52.2149C57.8393 52.2149 50.6408 48.0612 57.3782 42.1623C64.1156 36.2633 65.325 30.6477 62.1303 26.2639L43.0403 26.2127Z" fill="#CA73FF"/>
<path d="M43.0403 26.2127C43.0403 26.2127 39.5846 30.8799 41.8884 34.8801C44.1922 38.8803 48.2795 41.8553 49.8351 44.8815C51.3907 47.9078 48.5684 51.1898 47.5887 51.8037C46.6091 52.4176 37.6844 59.8572 43.2125 67.4974H61.871C61.871 67.4974 67.9176 60.5753 57.8393 52.2149C57.8393 52.2149 50.6408 48.0612 57.3782 42.1623C64.1156 36.2633 65.325 30.6477 62.1303 26.2639L43.0403 26.2127Z" fill="url(#paint2_linear_269_1225)"/>
<path d="M63.1884 24.3021H41.591C41.1028 24.3021 40.707 24.7496 40.707 25.3017V25.3036C40.707 25.8557 41.1028 26.3032 41.591 26.3032H63.1884C63.6765 26.3032 64.0723 25.8557 64.0723 25.3036V25.3017C64.0723 24.7496 63.6765 24.3021 63.1884 24.3021Z" fill="#CA73FF"/>
<path d="M63.1884 67.5762H41.591C41.1028 67.5762 40.707 68.0237 40.707 68.5757V68.5777C40.707 69.1297 41.1028 69.5772 41.591 69.5772H63.1884C63.6765 69.5772 64.0723 69.1297 64.0723 68.5777V68.5757C64.0723 68.0237 63.6765 67.5762 63.1884 67.5762Z" fill="#CA73FF"/>
<path d="M63.1884 24.3021H41.591C41.1028 24.3021 40.707 24.7496 40.707 25.3017V25.3036C40.707 25.8557 41.1028 26.3032 41.591 26.3032H63.1884C63.6765 26.3032 64.0723 25.8557 64.0723 25.3036V25.3017C64.0723 24.7496 63.6765 24.3021 63.1884 24.3021Z" fill="url(#paint3_linear_269_1225)"/>
<path d="M63.1884 67.5762H41.591C41.1028 67.5762 40.707 68.0237 40.707 68.5757V68.5777C40.707 69.1297 41.1028 69.5772 41.591 69.5772H63.1884C63.6765 69.5772 64.0723 69.1297 64.0723 68.5777V68.5757C64.0723 68.0237 63.6765 67.5762 63.1884 67.5762Z" fill="url(#paint4_linear_269_1225)"/>
<path d="M60.2964 56.8703C57.1347 54.9617 46.6736 54.6449 44.6882 56.28C46.5414 53.5056 49.0871 51.8725 49.0871 51.8725C51.5927 50.1016 54.4429 51.6403 54.4429 51.6403C54.4429 51.6403 58.0674 53.7378 60.2964 56.8703Z" fill="url(#paint5_linear_269_1225)"/>
<path d="M60.2303 67.344H44.5943L43.9905 66.7301C42.2052 63.2749 42.6437 60.2231 43.8165 57.7951C44.0736 57.27 44.3644 56.7669 44.6865 56.2898C46.6719 54.6449 57.133 54.9617 60.2946 56.8801C60.6182 57.3318 60.9092 57.8121 61.1647 58.3165C61.3336 58.6498 61.4813 58.9964 61.6066 59.3534C63.1657 63.8062 60.2303 67.344 60.2303 67.344Z" fill="#CA73FF"/>
<path d="M61.1699 58.3067C60.4234 61.3801 52.9795 56.6913 49.5116 56.3391C47.2217 56.1089 44.8031 57.6849 44.8031 57.6849C44.8031 57.6849 44.0218 58.0057 43.813 57.7912C44.0701 57.2661 44.3609 56.763 44.683 56.2859C46.6684 54.641 57.1295 54.9578 60.2912 56.8762C60.6175 57.3256 60.9114 57.804 61.1699 58.3067V58.3067Z" fill="url(#paint6_linear_269_1225)"/>
<path d="M44.6516 37.3928C44.6516 37.3928 50.0075 42.1623 50.3537 43.0851C50.7 44.0079 53.4858 44.5471 54.3558 43.7266C55.2258 42.9061 57.4357 41.3418 59.6247 37.8021C61.8136 34.2623 54.6151 36.5723 52.1964 37.0858C49.7778 37.5994 45.6313 34.2643 44.6516 37.3928Z" fill="#CA73FF"/>
<path d="M44.6516 37.3928C44.6516 37.3928 46.7257 38.9315 48.5684 38.4691C50.4111 38.0067 51.6204 36.6746 54.1539 36.9304C56.6874 37.1862 59.2209 38.4179 60.0283 37.0858C60.8357 35.7538 59.9709 34.6735 57.4356 35.0336C54.9004 35.3937 50.6982 35.4429 48.6832 35.2894C46.6683 35.1359 42.9829 35.496 44.6516 37.3928Z" fill="#CA73FF"/>
<path d="M44.6516 37.3928C44.6516 37.3928 46.7257 38.9315 48.5684 38.4691C50.4111 38.0067 51.6204 36.6746 54.1539 36.9304C56.6874 37.1862 59.2209 38.4179 60.0283 37.0858C60.8357 35.7538 59.9709 34.6735 57.4356 35.0336C54.9004 35.3937 50.6982 35.4429 48.6832 35.2894C46.6683 35.1359 42.9829 35.496 44.6516 37.3928Z" fill="url(#paint7_linear_269_1225)"/>
<path d="M52.1407 45.3262C51.9935 45.4356 51.8737 45.5861 51.7927 45.763C51.7636 45.8174 51.7449 45.878 51.7377 45.941C51.7305 46.004 51.735 46.0681 51.751 46.129C51.7756 46.1958 51.8175 46.2527 51.8712 46.292C51.925 46.3314 51.988 46.3514 52.052 46.3494C52.1612 46.3376 52.2651 46.2905 52.3513 46.2136C52.5253 46.0857 52.7167 45.9224 52.6906 45.7237C52.6645 45.5249 52.393 45.3833 52.1599 45.3046" fill="#CA73FF"/>
<path d="M53.1118 47.1463C53.0532 47.1632 52.9981 47.1933 52.95 47.2348C52.9256 47.2584 52.9117 47.284 52.9308 47.3096C52.9703 47.343 53.0191 47.3591 53.0683 47.3548C53.1149 47.3517 53.161 47.3424 53.2058 47.3273C53.2858 47.2998 53.3798 47.2663 53.3606 47.2269C53.3415 47.1876 53.2249 47.1581 53.1188 47.1423" fill="#CA73FF"/>
<path d="M52.1755 47.7228C52.1168 47.7397 52.0618 47.7698 52.0137 47.8113C51.9893 47.835 51.9771 47.8625 51.9945 47.8861C52.034 47.9195 52.0828 47.9356 52.132 47.9314C52.1787 47.9292 52.2249 47.9199 52.2695 47.9038C52.3495 47.8782 52.4435 47.8448 52.4261 47.8035C52.4087 47.7622 52.2886 47.7346 52.1825 47.7189" fill="#CA73FF"/>
<path d="M53.6634 50.4086C53.588 50.3723 53.507 50.3529 53.425 50.3516C53.3798 50.3516 53.3398 50.3634 53.3293 50.4008C53.3304 50.4316 53.3379 50.4618 53.3512 50.4888C53.3645 50.5158 53.3832 50.5389 53.4059 50.5562C53.4513 50.595 53.5018 50.6256 53.5556 50.6467C53.6547 50.69 53.7661 50.7333 53.7992 50.688C53.8322 50.6428 53.7504 50.5129 53.6721 50.4086" fill="#CA73FF"/>
<path d="M50.9001 53.907C50.8253 53.8709 50.7449 53.8515 50.6635 53.85C50.6165 53.85 50.5765 53.8637 50.5678 53.8992C50.5591 53.9346 50.5852 54.0015 50.6426 54.0546C50.6883 54.094 50.7395 54.1246 50.794 54.1451C50.8914 54.1884 51.0046 54.2317 51.0359 54.1864C51.0672 54.1412 50.9872 54.0113 50.9106 53.907" fill="#CA73FF"/>
<path d="M43.4528 14.1039C43.4263 13.5808 43.5483 13.0617 43.8008 12.6223C44.0531 12.1866 44.3907 11.8224 44.7874 11.5578C45.004 11.3811 45.267 11.2924 45.5338 11.306C45.7548 11.3374 46.5205 10.3969 46.6997 10.5465C47.2043 10.9695 47.1034 12.5338 47.5314 13.0552C47.6437 13.7547 47.7135 14.4621 47.7402 15.1723L47.996 20.5361C48.0378 21.4235 48.0586 22.3896 47.5888 23.094C46.4057 22.608 45.2544 22.028 44.1436 21.3586C44.0155 21.3068 43.9073 21.2062 43.8378 21.0741C43.7682 20.9419 43.7416 20.7864 43.7625 20.6345C43.7155 19.3004 43.7155 17.9624 43.7625 16.6284C43.7834 15.9122 43.505 14.8201 43.4528 14.1039Z" fill="#CA73FF"/>
<path d="M43.4528 14.1039C43.4263 13.5808 43.5483 13.0617 43.8008 12.6223C44.0531 12.1866 44.3907 11.8224 44.7874 11.5578C45.004 11.3811 45.267 11.2924 45.5338 11.306C45.7548 11.3374 46.5205 10.3969 46.6997 10.5465C47.2043 10.9695 47.1034 12.5338 47.5314 13.0552C47.6437 13.7547 47.7135 14.4621 47.7402 15.1723L47.996 20.5361C48.0378 21.4235 48.0586 22.3896 47.5888 23.094C46.4057 22.608 45.2544 22.028 44.1436 21.3586C44.0155 21.3068 43.9073 21.2062 43.8378 21.0741C43.7682 20.9419 43.7416 20.7864 43.7625 20.6345C43.7155 19.3004 43.7155 17.9624 43.7625 16.6284C43.7834 15.9122 43.505 14.8201 43.4528 14.1039Z" fill="url(#paint8_linear_269_1225)"/>
<path d="M42.5026 10.0762V10.2297C42.498 10.4225 42.5446 10.6124 42.6366 10.7747C42.8106 11.0187 43.1273 11.0286 43.397 10.9833C43.6072 10.923 43.8253 10.9063 44.0408 10.9341C44.2548 10.9872 44.4915 11.9789 44.6968 12.0183C45.0709 12.0911 45.8644 11.5716 46.1219 11.3099C46.148 11.2844 45.8487 10.5229 45.8591 10.4816C45.8678 10.4415 45.8678 10.3996 45.8591 10.3596L45.4415 8.1637C45.4028 7.85121 45.3023 7.5526 45.1475 7.29008C45.0242 7.1203 44.8675 6.98553 44.6898 6.89655C44.1 6.59157 43.2352 6.69979 42.8036 7.30582C42.5757 7.62654 42.5792 8.18338 42.5426 8.5769C42.496 9.07484 42.4827 9.57603 42.5026 10.0762V10.0762Z" fill="url(#paint9_linear_269_1225)"/>
<path d="M45.579 25.4335C44.4271 26.2737 43.1116 26.7695 41.8118 27.2555C41.4916 27.3756 41.1158 27.4897 40.8322 27.2969C40.6718 27.1695 40.545 26.9954 40.465 26.7931C39.9534 25.6952 38.6745 25.3686 39.3027 24.3513C39.5689 23.9184 41.0775 22.4998 41.4499 22.1869C42.1877 21.5671 42.9602 20.9296 43.8668 20.7584C44.2926 20.6886 44.7251 20.6886 45.1509 20.7584C45.974 20.8706 48.0499 21.2287 47.8759 22.423C47.7019 23.6174 46.4125 24.8196 45.579 25.4335Z" fill="#3E3E54"/>
<path d="M45.927 14.9933C45.927 15.7804 46.0001 16.5674 45.7704 17.3072C45.4624 18.2911 44.6585 18.9659 43.8564 19.4972C43.3604 19.8278 42.8228 20.1603 42.5566 20.7348C42.2903 21.3094 42.4782 22.1988 43.0438 22.3089C43.2634 22.3344 43.4852 22.2979 43.6893 22.2027C44.7841 21.7935 45.8417 21.2663 46.8475 20.6286C47.2599 20.3649 47.6775 20.0678 47.9315 19.6172C48.1518 19.161 48.2712 18.6513 48.2795 18.1317C48.362 17.0165 48.3328 15.8944 48.1925 14.7867C48.0304 13.9142 47.7285 13.0826 47.3016 12.3331C45.927 10.2277 45.927 13.8324 45.927 14.9933Z" fill="#CA73FF"/>
<path d="M45.927 14.9933C45.927 15.7804 46.0001 16.5674 45.7704 17.3072C45.4624 18.2911 44.6585 18.9659 43.8564 19.4972C43.3604 19.8278 42.8228 20.1603 42.5566 20.7348C42.2903 21.3094 42.4782 22.1988 43.0438 22.3089C43.2634 22.3344 43.4852 22.2979 43.6893 22.2027C44.7841 21.7935 45.8417 21.2663 46.8475 20.6286C47.2599 20.3649 47.6775 20.0678 47.9315 19.6172C48.1518 19.161 48.2712 18.6513 48.2795 18.1317C48.362 17.0165 48.3328 15.8944 48.1925 14.7867C48.0304 13.9142 47.7285 13.0826 47.3016 12.3331C45.927 10.2277 45.927 13.8324 45.927 14.9933Z" fill="url(#paint10_linear_269_1225)"/>
<path d="M38.3632 28.8985L38.0657 35.3386C38.7617 35.2894 39.0784 34.3764 39.2454 33.6228C39.7187 31.4847 40.1926 29.3465 40.667 27.2084C40.8062 26.5748 40.9489 25.9156 40.841 25.2742C40.7645 24.8197 40.4025 24.0306 39.9206 23.9814C39.4072 23.9303 39.1375 24.676 38.9601 25.1246C38.4955 26.3032 38.4206 27.6314 38.3632 28.8985Z" fill="url(#paint11_linear_269_1225)"/>
<path d="M39.3985 29.3334L39.6003 35.7774C40.2807 35.6593 40.533 34.7188 40.6444 33.9514C40.9506 31.7752 41.2574 29.5984 41.5648 27.4208C41.6553 26.7755 41.7389 26.1065 41.5892 25.4768C41.4778 25.0322 41.0568 24.2825 40.573 24.2805C40.051 24.2805 39.8474 25.0479 39.703 25.5142C39.3306 26.7282 39.3585 28.0741 39.3985 29.3334Z" fill="url(#paint12_linear_269_1225)"/>
<path d="M39.1095 34.0301L38.4622 34.0832C38.3951 34.0788 38.3279 34.09 38.2648 34.116C38.2016 34.1421 38.1439 34.1825 38.0951 34.2347C38.0422 34.327 38.016 34.4357 38.0202 34.5456C38.0028 34.9391 37.9994 35.3327 38.0202 35.7104C38.0168 35.7259 38.0168 35.7422 38.0202 35.7577C38.0301 35.7709 38.0428 35.7811 38.0571 35.7873C38.0714 35.7935 38.0869 35.7955 38.102 35.7931C38.3496 35.7907 38.5926 35.7176 38.8085 35.5806C38.9003 35.532 38.9794 35.4574 39.0382 35.3641C39.0915 35.2517 39.1185 35.1257 39.1165 34.9982C39.1339 34.6696 39.1408 34.339 39.1304 34.0143L39.1095 34.0301Z" fill="#CA73FF"/>
<path d="M39.0957 35.3543C39.0943 35.3266 39.0872 35.2996 39.0748 35.2756C39.0584 35.2563 39.0366 35.2441 39.0132 35.2408C38.9897 35.2376 38.966 35.2436 38.946 35.2579C38.9074 35.2891 38.8734 35.3269 38.8451 35.37C38.7333 35.5193 38.5763 35.6161 38.4049 35.6416C38.2303 35.637 38.0557 35.6488 37.8829 35.677C37.7582 35.7321 37.645 35.8158 37.5505 35.923L36.9867 36.4739C36.8545 36.6018 36.7101 36.769 36.7414 36.9638C36.766 37.0491 36.812 37.1245 36.8738 37.1807C36.9355 37.237 37.0105 37.2717 37.0894 37.2806C37.3744 37.3158 37.6628 37.2754 37.9316 37.1626C38.1823 37.0866 38.4287 36.9933 38.6694 36.8832C38.7956 36.8322 38.9083 36.7455 38.9965 36.6313C39.1896 36.3381 39.1252 35.6986 39.0957 35.3543Z" fill="#3E3E54"/>
<path d="M40.6634 34.1167L40.0109 34.1737C39.9435 34.1695 39.8761 34.1807 39.8127 34.2068C39.7493 34.2328 39.6912 34.2731 39.642 34.3252C39.5906 34.4182 39.5652 34.5265 39.5689 34.6361C39.5498 35.0296 39.548 35.4231 39.5602 35.8009C39.5604 35.8178 39.5634 35.8345 39.5689 35.8501C39.5787 35.8629 39.5912 35.8726 39.6051 35.8784C39.6191 35.8843 39.6342 35.8861 39.649 35.8836C39.8972 35.8824 40.1411 35.8092 40.3572 35.6711C40.4489 35.6234 40.5281 35.5494 40.5868 35.4566C40.6381 35.3434 40.6644 35.2178 40.6634 35.0906C40.6831 34.7601 40.6883 34.4321 40.6791 34.1068L40.6634 34.1167Z" fill="#CA73FF"/>
<path d="M40.6494 35.435C40.6493 35.4067 40.6427 35.3789 40.6303 35.3543C40.6136 35.3348 40.5914 35.3226 40.5676 35.3197C40.5437 35.3169 40.5197 35.3235 40.4998 35.3385C40.4613 35.3692 40.4278 35.4072 40.4006 35.4507C40.2885 35.5992 40.1316 35.6953 39.9604 35.7203C39.7858 35.7172 39.6112 35.7297 39.4384 35.7576C39.3133 35.8119 39.1995 35.895 39.1043 36.0016L38.5405 36.5526C38.41 36.6824 38.2656 36.8497 38.2952 37.0425C38.3199 37.1277 38.366 37.2029 38.4277 37.2591C38.4895 37.3153 38.5643 37.3501 38.6432 37.3593C38.9288 37.3956 39.2179 37.3552 39.4871 37.2412C39.738 37.1659 39.9844 37.0726 40.2249 36.9618C40.3507 36.911 40.4628 36.8243 40.5503 36.71C40.7434 36.4168 40.679 35.7832 40.6494 35.435Z" fill="#3E3E54"/>
<path d="M41.2169 21.274C40.8376 21.2956 40.4182 21.274 40.1294 21.5573C40.1007 21.579 40.077 21.6082 40.0603 21.6425C40.0437 21.6767 40.0345 21.715 40.0337 21.7541C40.0442 21.8074 40.0684 21.856 40.1033 21.8938L40.9542 23.0133C40.9948 23.0734 41.0435 23.1259 41.0986 23.1688C41.2106 23.2315 41.3378 23.2508 41.4605 23.2239C41.9283 23.1647 42.3669 22.937 42.7116 22.5746C43.0596 22.1987 42.8978 21.5907 42.5254 21.2858C42.1531 20.9808 41.6589 21.2484 41.2169 21.274Z" fill="url(#paint13_linear_269_1225)"/>
<path d="M45.5878 5.22801C46.7814 5.3441 47.8498 6.19805 48.5737 7.27631C49.3271 8.39785 49.9292 9.88735 51.1472 10.1825C51.6953 10.3163 52.2678 10.1648 52.8246 10.2297C53.3438 10.3024 53.83 10.5564 54.2155 10.9564C54.6011 11.3563 54.8666 11.8823 54.9753 12.461C55.1058 13.2264 54.9457 14.0174 55.0153 14.7926C55.1528 16.3215 56.1724 17.7756 55.7913 19.2493C55.4886 20.4141 54.2253 21.1205 53.2178 20.6758C52.146 20.2016 51.6814 18.8184 50.9558 17.8031C50.6408 17.3604 50.1797 16.9452 49.6855 17.0495C49.4402 17.1026 49.2262 17.2777 48.9895 17.3486C48.4327 17.5119 47.8533 17.0692 47.5697 16.5025C47.286 15.9358 47.2217 15.2668 47.1329 14.6254C47.0041 13.7203 46.7849 12.7916 46.2629 12.097C45.6156 11.247 44.5629 10.8239 44.0739 9.84799C43.7851 9.26951 43.7346 8.58675 43.4719 7.99843C43.2387 7.48094 42.7915 7.21138 42.9881 6.59944C43.317 5.58808 44.7612 5.1493 45.5878 5.22801Z" fill="#3E3E54"/>
<path d="M42.313 6.57778C42.2848 6.74317 42.2921 6.9138 42.3341 7.07537C42.3762 7.23695 42.4519 7.38478 42.5549 7.5065C42.764 7.74739 42.9976 7.95941 43.2509 8.1381C43.5034 8.31865 43.7121 8.56751 43.8582 8.86219C43.8732 8.91193 43.8982 8.95705 43.9313 8.99402C43.9484 9.01091 43.9703 9.02021 43.993 9.02021C44.0157 9.02021 44.0377 9.01091 44.0548 8.99402C44.0716 8.96776 44.0802 8.93591 44.0792 8.90351C44.114 8.35258 44.0252 7.80361 44.0252 7.25267C44.0252 6.87882 44.1244 6.40266 43.926 6.0721C43.545 5.43262 42.4661 5.94617 42.313 6.57778Z" fill="#3E3E54"/>
<path d="M39.0191 18.6866C38.9968 18.8386 39.026 18.9946 39.1009 19.1234C39.2575 19.3497 39.6021 19.2906 39.7656 19.0722C39.9139 18.8337 39.9761 18.5403 39.9396 18.2517C39.922 18.514 39.9703 18.7766 40.0788 19.0093C40.2058 19.2257 40.4982 19.3418 40.6739 19.1726C40.7217 19.1191 40.7585 19.0543 40.7817 18.9829C40.8049 18.9115 40.8138 18.8351 40.8079 18.7594C40.8035 18.495 40.7079 18.2429 40.5417 18.0569C40.6324 18.206 40.7667 18.314 40.921 18.3619C40.9978 18.3865 41.0791 18.3865 41.1559 18.3619C41.2326 18.3271 41.2966 18.2641 41.3376 18.183C41.3787 18.102 41.3943 18.0076 41.3821 17.9153C41.3674 17.8236 41.3354 17.7366 41.2883 17.6602C41.2411 17.5838 41.18 17.5198 41.1089 17.4725C40.9659 17.377 40.8093 17.3104 40.6461 17.2758C40.7627 17.1813 40.8966 17.1164 41.0115 17.02C41.0716 16.9766 41.1227 16.9189 41.1611 16.8509C41.1996 16.783 41.2245 16.7064 41.2342 16.6265C41.2464 16.3549 40.9784 16.1562 40.7383 16.1778C40.5012 16.2264 40.2842 16.3594 40.1188 16.5576C39.9644 16.3916 39.7788 16.2672 39.576 16.1936C39.4741 16.1583 39.3658 16.1547 39.2623 16.1831C39.1588 16.2115 39.064 16.2708 38.9878 16.3549C38.9468 16.4154 38.9177 16.4851 38.9025 16.5593C38.8874 16.6336 38.8866 16.7107 38.9001 16.7853C38.9136 16.86 38.9412 16.9305 38.981 16.992C39.0207 17.0536 39.0717 17.1047 39.1305 17.142C38.979 17.1594 38.8269 17.1679 38.6746 17.1676C38.5981 17.1693 38.5231 17.192 38.4561 17.2339C38.3891 17.2757 38.3321 17.3353 38.2901 17.4076C38.2574 17.4972 38.2536 17.5969 38.2794 17.6894C38.3051 17.7818 38.3588 17.8611 38.431 17.9133C38.5047 17.963 38.5869 17.9942 38.6722 18.0047C38.7575 18.0153 38.8438 18.0049 38.9252 17.9743C39.0296 17.9389 39.2245 17.7559 39.3184 17.8385C39.2192 18.1474 39.0487 18.3521 39.0191 18.6866Z" fill="#CA73FF"/>
<path d="M39.9588 17.87C40.2846 17.87 40.5487 17.6471 40.5487 17.3722C40.5487 17.0973 40.2846 16.8744 39.9588 16.8744C39.633 16.8744 39.3689 17.0973 39.3689 17.3722C39.3689 17.6471 39.633 17.87 39.9588 17.87Z" fill="white"/>
<defs>
<linearGradient id="paint0_linear_269_1225" x1="46.1777" y1="18.8046" x2="39.7143" y2="16.9847" gradientUnits="userSpaceOnUse">
<stop offset="0.01"/>
<stop offset="0.13" stop-opacity="0.69"/>
<stop offset="1" stop-opacity="0"/>
</linearGradient>
<linearGradient id="paint1_linear_269_1225" x1="39.347" y1="21.0172" x2="42.0966" y2="21.9986" gradientUnits="userSpaceOnUse">
<stop stop-color="#E5C5D5"/>
<stop offset="0.42" stop-color="#EAD4D1"/>
<stop offset="1" stop-color="#F0E9CB"/>
</linearGradient>
<linearGradient id="paint2_linear_269_1225" x1="41.0967" y1="46.8551" x2="63.8181" y2="46.8551" gradientUnits="userSpaceOnUse">
<stop offset="0.02" stop-color="white" stop-opacity="0"/>
<stop offset="0.32" stop-color="white" stop-opacity="0.39"/>
<stop offset="0.68" stop-color="white" stop-opacity="0.68"/>
<stop offset="1" stop-color="white"/>
</linearGradient>
<linearGradient id="paint3_linear_269_1225" x1="5965.2" y1="302.411" x2="5965.38" y2="263.108" gradientUnits="userSpaceOnUse">
<stop offset="0.01"/>
<stop offset="0.13" stop-opacity="0.69"/>
<stop offset="1" stop-opacity="0"/>
</linearGradient>
<linearGradient id="paint4_linear_269_1225" x1="5977.59" y1="717.265" x2="5977.59" y2="811.156" gradientUnits="userSpaceOnUse">
<stop offset="0.01"/>
<stop offset="0.13" stop-opacity="0.69"/>
<stop offset="1" stop-opacity="0"/>
</linearGradient>
<linearGradient id="paint5_linear_269_1225" x1="4323.82" y1="1664.47" x2="4308.19" y2="1872.1" gradientUnits="userSpaceOnUse">
<stop offset="0.02" stop-color="white" stop-opacity="0"/>
<stop offset="0.32" stop-color="white" stop-opacity="0.39"/>
<stop offset="0.68" stop-color="white" stop-opacity="0.68"/>
<stop offset="1" stop-color="white"/>
</linearGradient>
<linearGradient id="paint6_linear_269_1225" x1="4815.92" y1="1207.48" x2="4800.46" y2="1531.53" gradientUnits="userSpaceOnUse">
<stop offset="0.01"/>
<stop offset="0.13" stop-opacity="0.69"/>
<stop offset="1" stop-opacity="0"/>
</linearGradient>
<linearGradient id="paint7_linear_269_1225" x1="4355.48" y1="803.149" x2="4354.54" y2="674.347" gradientUnits="userSpaceOnUse">
<stop offset="0.01"/>
<stop offset="0.13" stop-opacity="0.69"/>
<stop offset="1" stop-opacity="0"/>
</linearGradient>
<linearGradient id="paint8_linear_269_1225" x1="1180.28" y1="1271.29" x2="978.269" y2="1274.05" gradientUnits="userSpaceOnUse">
<stop offset="0.01"/>
<stop offset="0.13" stop-opacity="0.69"/>
<stop offset="1" stop-opacity="0"/>
</linearGradient>
<linearGradient id="paint9_linear_269_1225" x1="809.373" y1="340.22" x2="885.2" y2="340.22" gradientUnits="userSpaceOnUse">
<stop stop-color="#E5C5D5"/>
<stop offset="0.42" stop-color="#EAD4D1"/>
<stop offset="1" stop-color="#F0E9CB"/>
</linearGradient>
<linearGradient id="paint10_linear_269_1225" x1="1593.56" y1="1114.23" x2="1246.1" y2="1104.49" gradientUnits="userSpaceOnUse">
<stop offset="0.01"/>
<stop offset="0.13" stop-opacity="0.69"/>
<stop offset="1" stop-opacity="0"/>
</linearGradient>
<linearGradient id="paint11_linear_269_1225" x1="-34.5825" y1="3374.08" x2="2.44431" y2="3376.95" gradientUnits="userSpaceOnUse">
<stop stop-color="#E5C5D5"/>
<stop offset="0.42" stop-color="#EAD4D1"/>
<stop offset="1" stop-color="#F0E9CB"/>
</linearGradient>
<linearGradient id="paint12_linear_269_1225" x1="483.138" y1="1955.06" x2="513.433" y2="1955.06" gradientUnits="userSpaceOnUse">
<stop stop-color="#E5C5D5"/>
<stop offset="0.42" stop-color="#EAD4D1"/>
<stop offset="1" stop-color="#F0E9CB"/>
</linearGradient>
<linearGradient id="paint13_linear_269_1225" x1="605.816" y1="289.476" x2="653.261" y2="289.476" gradientUnits="userSpaceOnUse">
<stop stop-color="#E5C5D5"/>
<stop offset="0.42" stop-color="#EAD4D1"/>
<stop offset="1" stop-color="#F0E9CB"/>
</linearGradient>
</defs>
</svg>
