<svg width="75" height="70" viewBox="0 0 75 70" fill="none" xmlns="http://www.w3.org/2000/svg">
<path d="M75 21C75 32.598 65.598 42 54 42C42.402 42 33 32.598 33 21C33 9.40202 42.402 0 54 0C65.598 0 75 9.40202 75 21Z" fill="url(#paint0_linear_533_218)" fill-opacity="0.9"/>
<path d="M55 29.5C55 44.6878 42.6878 57 27.5 57C12.3122 57 0 44.6878 0 29.5C0 14.3122 12.3122 2 27.5 2C42.6878 2 55 14.3122 55 29.5Z" fill="url(#paint1_linear_533_218)" fill-opacity="0.9"/>
<circle cx="32" cy="56" r="14" fill="url(#paint2_linear_533_218)" fill-opacity="0.8"/>
<circle cx="55" cy="48" r="18" fill="url(#paint3_linear_533_218)" fill-opacity="0.9"/>
<defs>
<linearGradient id="paint0_linear_533_218" x1="67.65" y1="7.16594" x2="36.675" y2="34.9909" gradientUnits="userSpaceOnUse">
<stop offset="0.369267" stop-color="#FAD400"/>
<stop offset="1" stop-color="#2EA400"/>
</linearGradient>
<linearGradient id="paint1_linear_533_218" x1="5" y1="18.5" x2="50.5" y2="26" gradientUnits="userSpaceOnUse">
<stop stop-color="#5D92F2" stop-opacity="0.97"/>
<stop offset="0.255208" stop-color="#5CB8FB" stop-opacity="0.991935"/>
<stop offset="0.499618" stop-color="#5CC6FE"/>
<stop offset="1" stop-color="#2EA400" stop-opacity="0.87"/>
</linearGradient>
<linearGradient id="paint2_linear_533_218" x1="32" y1="42" x2="32" y2="70" gradientUnits="userSpaceOnUse">
<stop stop-color="#5118D6" stop-opacity="0.87"/>
<stop offset="0.449878" stop-color="#B510D2"/>
<stop offset="1" stop-color="#473EE6"/>
</linearGradient>
<linearGradient id="paint3_linear_533_218" x1="46" y1="35" x2="59" y2="66" gradientUnits="userSpaceOnUse">
<stop stop-color="#CA73FF" stop-opacity="0.93"/>
<stop offset="0.553436" stop-color="#FE037F" stop-opacity="0.81"/>
<stop offset="0.942708" stop-color="#FBDD36" stop-opacity="0.81"/>
</linearGradient>
</defs>
</svg>
