<svg width="20" height="34" viewBox="0 0 20 34" fill="none" xmlns="http://www.w3.org/2000/svg">
<path d="M9.5 19.4545H3.27678C1.81039 19.4545 1.0772 19.4545 0.784823 18.9755C0.492451 18.4965 0.82764 17.8444 1.49802 16.5402L9.05531 1.83786C9.43016 1.1086 9.61759 0.743965 9.80879 0.79023C10 0.836494 10 1.24648 10 2.06644V13.0455C10 13.2812 10 13.399 10.0732 13.4722C10.1464 13.5455 10.2643 13.5455 10.5 13.5455H16.8295C18.254 13.5455 18.9663 13.5455 19.2605 14.0119C19.5548 14.4784 19.248 15.1212 18.6345 16.4068L10.9512 32.5067C10.5768 33.2913 10.3896 33.6836 10.1948 33.6395C10 33.5954 10 33.1607 10 32.2914V19.9545C10 19.7188 10 19.601 9.92678 19.5278C9.85355 19.4545 9.7357 19.4545 9.5 19.4545Z" fill="url(#paint0_linear_529_223)"/>
<defs>
<linearGradient id="paint0_linear_529_223" x1="10" y1="4" x2="10" y2="34.5" gradientUnits="userSpaceOnUse">
<stop stop-color="#4361FF" stop-opacity="0.75"/>
<stop offset="0.572917" stop-color="#5CC6FE"/>
</linearGradient>
</defs>
</svg>
