<svg width="39" height="26" viewBox="0 0 39 26" fill="none" xmlns="http://www.w3.org/2000/svg">
<path d="M31.6289 23.9998H7.37867C7.15676 23.9998 6.95707 23.8535 6.89458 23.6406L2.08249 7.24397C2.03154 7.0704 2.07833 6.88284 2.20484 6.75352L2.56765 6.38265C2.72468 6.22213 2.96945 6.18599 3.16617 6.29427L13.2205 11.8284C13.4656 11.9633 13.7736 11.8709 13.904 11.6234L19.0576 1.83981C19.2451 1.48385 19.7549 1.48385 19.9424 1.83981L25.1032 11.637C25.2307 11.8792 25.5293 11.9738 25.7731 11.8492L36.3028 6.46741C36.6216 6.30446 37 6.53602 37 6.89405C37 6.93972 36.9935 6.98516 36.9806 7.02898L32.1054 23.6406C32.0429 23.8535 31.8508 23.9998 31.6289 23.9998Z" stroke="white" stroke-width="2.5"/>
<path d="M21.1665 16.3334C21.1665 17.0391 20.6069 17.6112 19.9165 17.6112C19.2261 17.6112 18.6665 17.0391 18.6665 16.3334C18.6665 15.6277 19.2261 15.0557 19.9165 15.0557C20.6069 15.0557 21.1665 15.6277 21.1665 16.3334Z" fill="white"/>
</svg>
