<svg width="406" height="306" viewBox="0 0 406 306" fill="none" xmlns="http://www.w3.org/2000/svg">
<path opacity="0.73" d="M290.929 225.42C290.929 225.42 287.387 217.848 292.046 215.088C296.705 212.327 304.053 217.331 302.196 221.178C301.579 222.312 300.708 223.289 299.652 224.031C298.595 224.774 297.382 225.264 296.106 225.461L290.929 225.42Z" fill="#CA73FF"/>
<path d="M257.749 127.889C257.749 127.889 275.004 154.36 257.749 205.932" stroke="#24285B" stroke-width="8.12" stroke-linecap="round" stroke-linejoin="round"/>
<path d="M146.322 143.865C146.322 143.865 125.586 168.225 134.396 180.405C143.206 192.585 165.313 182.029 172.53 158.451" stroke="#24285B" stroke-width="8.12" stroke-linecap="round" stroke-linejoin="round"/>
<path d="M139.755 137.938C139.755 137.938 131.148 139.308 132.123 145.794C133.097 152.279 143.176 160.673 150.21 157.974C157.244 155.274 153.58 143.865 153.58 143.865L139.755 137.938Z" fill="#FFD200"/>
<path opacity="0.44" d="M139.755 137.938C139.755 137.938 131.148 139.308 132.123 145.794C133.097 152.279 143.176 160.673 150.21 157.974C157.244 155.274 153.58 143.865 153.58 143.865L139.755 137.938Z" fill="white"/>
<path d="M175.098 84.5991C175.099 83.2485 174.834 81.9109 174.318 80.6628C173.802 79.4148 173.044 78.2808 172.089 77.3257C171.134 76.3707 170 75.6134 168.752 75.0971C167.504 74.5809 166.166 74.3159 164.816 74.3172C164.261 74.3187 163.708 74.3662 163.161 74.4593C161.98 72.2558 160.224 70.4136 158.079 69.1286C155.934 67.8436 153.481 67.1638 150.981 67.1614H150.474C150.803 65.8605 150.973 64.5245 150.981 63.1826C150.981 58.819 149.248 54.6341 146.162 51.5485C143.077 48.4629 138.892 46.7295 134.528 46.7295C130.164 46.7295 125.98 48.4629 122.894 51.5485C119.808 54.6341 118.075 58.819 118.075 63.1826C118.083 64.5245 118.253 65.8605 118.583 67.1614H118.075C114.464 67.2592 111.034 68.7623 108.514 71.3508C105.995 73.9394 104.585 77.409 104.585 81.0213C104.585 84.6335 105.995 88.1031 108.514 90.6917C111.034 93.2803 114.464 94.7834 118.075 94.8811H166.156V94.7796C168.629 94.4589 170.9 93.2487 172.546 91.3752C174.192 89.5016 175.099 87.0928 175.098 84.5991Z" fill="#EFEFEF"/>
<path d="M254.765 63.1419C254.765 61.1095 255.572 59.1603 257.01 57.7232C258.447 56.2861 260.396 55.4787 262.428 55.4787C262.84 55.4797 263.251 55.517 263.656 55.5903C264.543 53.9408 265.861 52.5633 267.47 51.605C269.08 50.6468 270.919 50.1438 272.791 50.1499H273.167C272.923 49.1773 272.797 48.1788 272.791 47.176C272.744 45.5355 273.027 43.9022 273.622 42.3727C274.217 40.8432 275.113 39.4487 276.257 38.2716C277.4 37.0946 278.769 36.1589 280.28 35.5199C281.792 34.881 283.417 34.5518 285.058 34.5518C286.699 34.5518 288.323 34.881 289.835 35.5199C291.347 36.1589 292.715 37.0946 293.859 38.2716C295.002 39.4487 295.898 40.8432 296.494 42.3727C297.089 43.9022 297.371 45.5355 297.324 47.176C297.32 48.1795 297.191 49.1786 296.938 50.1499H297.324C300.064 50.1499 302.693 51.2386 304.63 53.1763C306.568 55.1141 307.657 57.7422 307.657 60.4826C307.657 63.223 306.568 65.8512 304.63 67.789C302.693 69.7267 300.064 70.8153 297.324 70.8153H261.383V70.7849C259.54 70.5312 257.852 69.6158 256.635 68.2095C255.417 66.8032 254.753 65.0021 254.765 63.1419Z" fill="#EFEFEF"/>
<path opacity="0.45" d="M213.343 252.653C280.123 252.653 334.26 247.059 334.26 240.158C334.26 233.258 280.123 227.664 213.343 227.664C146.562 227.664 92.4259 233.258 92.4259 240.158C92.4259 247.059 146.562 252.653 213.343 252.653Z" fill="#E6E6E6"/>
<path d="M228.466 167.261C228.466 167.261 229.065 198.594 222.752 220.589" stroke="#24285B" stroke-width="8.12" stroke-linecap="round" stroke-linejoin="round"/>
<path d="M235.257 198.594H213.8V239.529H254.714L232.932 226.171L235.257 198.594Z" fill="#FFD200"/>
<path d="M195.56 167.261C195.56 167.261 189.247 198.594 195.56 220.589" stroke="#24285B" stroke-width="8.12" stroke-linecap="round" stroke-linejoin="round"/>
<path d="M207.679 180.445C242.552 180.445 270.822 152.175 270.822 117.302C270.822 82.4293 242.552 54.1592 207.679 54.1592C172.806 54.1592 144.536 82.4293 144.536 117.302C144.536 152.175 172.806 180.445 207.679 180.445Z" fill="#CA73FF"/>
<path opacity="0.09" d="M245.823 67.1006C255.571 79.0986 260.578 94.2564 259.895 109.7C259.213 125.144 252.887 139.801 242.118 150.892C231.349 161.982 216.884 168.736 201.467 169.873C186.05 171.01 170.752 166.451 158.472 157.06C164.085 164.01 171.108 169.69 179.078 173.725C187.049 177.759 195.784 180.057 204.708 180.465C213.632 180.874 222.541 179.384 230.847 176.095C239.152 172.806 246.666 167.791 252.89 161.383C259.114 154.975 263.908 147.32 266.954 138.922C270.001 130.524 271.231 121.575 270.563 112.667C269.895 103.759 267.344 95.0937 263.08 87.2441C258.815 79.3945 252.933 72.5392 245.823 67.131V67.1006Z" fill="black"/>
<path d="M188.923 119.452C192.221 118.789 193.708 112.353 192.245 105.077C190.781 97.8006 186.922 92.4395 183.625 93.1026C180.327 93.7657 178.84 100.202 180.304 107.478C181.767 114.754 185.626 120.115 188.923 119.452Z" fill="#24285B"/>
<path d="M225.392 112.112C228.689 111.449 230.176 105.013 228.713 97.737C227.25 90.4607 223.391 85.0997 220.093 85.7628C216.796 86.4258 215.309 92.862 216.772 100.138C218.235 107.415 222.094 112.776 225.392 112.112Z" fill="#24285B"/>
<path d="M245.112 149.488C245.112 149.488 238.302 125.128 210.846 131.522C183.39 137.917 187.207 161.12 187.207 161.12" stroke="#24285B" stroke-width="3.045" stroke-linecap="round" stroke-linejoin="round"/>
<path opacity="0.36" d="M177.089 131.689C182.035 130.695 185.618 127.768 185.092 125.152C184.566 122.536 180.13 121.222 175.184 122.216C170.238 123.211 166.654 126.138 167.18 128.754C167.706 131.37 172.142 132.684 177.089 131.689Z" fill="white"/>
<path opacity="0.36" d="M242.237 118.586C247.183 117.592 250.766 114.665 250.24 112.049C249.714 109.433 245.278 108.119 240.332 109.113C235.386 110.108 231.802 113.035 232.328 115.651C232.854 118.267 237.291 119.581 242.237 118.586Z" fill="white"/>
<path d="M182.426 196.462L203.599 200.005L196.839 240.381L156.493 233.632L180.173 224.05L182.426 196.462Z" fill="#FFD200"/>
<path d="M254.166 192.788C254.166 192.788 241.276 193.681 242.433 200.725C243.59 207.769 249.172 207.759 249.172 207.759C249.172 207.759 244.097 221.421 256.501 221.736C268.904 222.05 275.4 206.369 271.726 196.828C268.051 187.287 254.166 192.788 254.166 192.788Z" fill="#FFD200"/>
<path d="M273.482 183.054C273.482 183.054 245.64 173.625 246.574 185.226C247.508 196.828 262.51 195.031 270.792 196.696C279.074 198.361 283.642 187.784 273.482 183.054Z" fill="#FFD200"/>
<path opacity="0.44" d="M273.482 183.054C273.482 183.054 245.64 173.625 246.574 185.226C247.508 196.828 262.51 195.031 270.792 196.696C279.074 198.361 283.642 187.784 273.482 183.054Z" fill="white"/>
<path d="M286.332 225.42L288.321 239.001L300.816 239.052L302.663 225.491L286.332 225.42Z" fill="#24285B"/>
<path d="M176.813 98.921C179.061 97.559 180.987 95.7242 182.456 93.5439C183.924 91.3636 184.901 88.8899 185.319 86.2944" stroke="#24285B" stroke-width="3.045" stroke-linecap="round" stroke-linejoin="round"/>
<path d="M215.819 80.478C219.207 85.1489 224.105 88.5052 229.684 89.9784" stroke="#24285B" stroke-width="3.045" stroke-linecap="round" stroke-linejoin="round"/>
<path d="M139.867 125.159C139.867 125.159 135.178 96.83 148.281 100.799C156.594 103.336 148.555 117.506 151.326 125.159C154.097 132.812 160.116 144.647 154.179 148.95C148.241 153.254 137.35 152.574 139.867 125.159Z" fill="#FFD200"/>
<path d="M294.492 225.461C294.492 225.461 294.208 219.067 300.166 218.63C306.124 218.194 311.483 228.131 306.906 234.089L302.237 225.623L294.492 225.461Z" fill="#CA73FF"/>
<path opacity="0.58" d="M294.492 225.461C294.492 225.461 292.635 217.909 286.372 218.62C280.11 219.33 277.663 227.613 281.114 233.053L286.372 225.42L294.492 225.461Z" fill="#CA73FF"/>
</svg>
