<svg width="30" height="31" viewBox="0 0 30 31" fill="none" xmlns="http://www.w3.org/2000/svg">
<path d="M15.1401 25.8181C14.822 25.811 14.5181 25.6818 14.2886 25.4559L5.13175 16.054C4.93081 15.8293 4.81934 15.5355 4.81934 15.2307C4.81934 14.9259 4.93081 14.6322 5.13175 14.4074L18.61 0.362244C18.8358 0.130585 19.142 0.000288239 19.4615 4.88598e-09H28.6987C29.0155 -2.88576e-05 29.3195 0.127816 29.545 0.35586C29.7705 0.583904 29.8993 0.893797 29.9035 1.21846L29.9999 10.5709C30.0004 10.9034 29.8735 11.2227 29.6465 11.4601L15.9754 25.4724C15.7511 25.694 15.4517 25.8179 15.1401 25.8181V25.8181ZM7.66998 15.1813L15.1401 22.8214L27.6063 10.0605L27.5099 2.45338L19.9595 2.42045L7.66998 15.1813Z" fill="white"/>
<path d="M19.1342 30.7381C18.9759 30.7389 18.8191 30.7072 18.6729 30.645C18.5266 30.5828 18.394 30.4913 18.2828 30.3759L0.193928 11.7861C0.047111 11.554 -0.0194307 11.2782 0.00496759 11.0027C0.0293659 10.7272 0.143291 10.4681 0.328484 10.2669C0.513677 10.0657 0.759413 9.93403 1.02631 9.89304C1.2932 9.85204 1.56579 9.90407 1.8004 10.0408L13.655 16.4657L19.9856 28.6799C20.2113 28.9114 20.338 29.2253 20.338 29.5526C20.338 29.8798 20.2113 30.1937 19.9856 30.4253C19.871 30.5326 19.7367 30.6155 19.5905 30.6692C19.4444 30.7229 19.2893 30.7463 19.1342 30.7381Z" fill="white"/>
<path d="M6.77943 30.9937C6.61141 31.0114 6.44162 30.9927 6.28111 30.9388C6.12059 30.8849 5.97292 30.797 5.84768 30.6808L0.353551 25.0002C0.239225 24.8806 0.149133 24.7391 0.088473 24.5836C0.0278132 24.4282 -0.00221305 24.262 0.000126966 24.0946C0.000126966 23.4195 0.000126394 23.403 6.60272 16.8168C6.8328 16.5875 7.14231 16.4613 7.46316 16.4659C7.78401 16.4706 8.08993 16.6057 8.31361 16.8415C8.5373 17.0773 8.66042 17.3945 8.6559 17.7234C8.65138 18.0522 8.51959 18.3658 8.28952 18.5951C8.83559 18.9357 9.94406 18.5899 8.83559 19.7589V20.5822L12.0969 22.448C12.2076 22.3315 12.34 22.2389 12.4862 22.1757C12.6325 22.1125 12.7896 22.0799 12.9483 22.0799C13.107 22.0799 13.2641 22.1125 13.4103 22.1757C13.5566 22.2389 13.689 22.3315 13.7997 22.448C14.0253 22.6796 14.1521 22.9935 14.1521 23.3207C14.1521 23.648 14.0253 23.9618 13.7997 24.1934L7.55054 30.6808C7.33494 30.8707 7.0634 30.9809 6.77943 30.9937Z" fill="white"/>
<path d="M15.6618 15.6733C15.5035 15.6741 15.3466 15.6425 15.2004 15.5802C15.0542 15.518 14.9216 15.4265 14.8104 15.3111C14.5847 15.0795 14.458 14.7657 14.458 14.4384C14.458 14.1112 14.5847 13.7973 14.8104 13.5657L21.2363 6.97947C21.3466 6.85814 21.4796 6.76083 21.6274 6.69333C21.7752 6.62584 21.9347 6.58954 22.0965 6.58662C22.2583 6.58369 22.419 6.61419 22.569 6.6763C22.719 6.73841 22.8553 6.83086 22.9697 6.94813C23.0841 7.06539 23.1743 7.20508 23.2349 7.35885C23.2955 7.51262 23.3253 7.67732 23.3224 7.84313C23.3195 8.00895 23.2841 8.17247 23.2183 8.32396C23.1524 8.47544 23.0575 8.61178 22.9391 8.72483L16.5132 15.3111C16.402 15.4265 16.2694 15.518 16.1232 15.5802C15.977 15.6425 15.8201 15.6741 15.6618 15.6733Z" fill="white"/>
</svg>
