<svg width="39" height="26" viewBox="0 0 39 26" fill="none" xmlns="http://www.w3.org/2000/svg">
<path d="M8.66683 24H13.6668H27.0002H30.7744C31.0048 24 31.2053 23.8426 31.2601 23.6188L32.8335 17.1853L35.6533 9.25861C35.8154 8.80287 35.2836 8.37749 34.8626 8.61574C32.1256 10.1648 27.7433 12.0298 24.8803 12.8246C24.6573 12.8865 24.4241 12.7816 24.3163 12.5769L19.1064 2.68645C18.9194 2.33156 18.4117 2.3302 18.2229 2.68409L13.6668 11.2223L13.0571 12.4689C12.9342 12.7201 12.6293 12.8217 12.3804 12.6944L9.5729 11.2595C9.52473 11.2349 9.48087 11.2026 9.44304 11.1639L6.26476 7.91507C6.20071 7.84959 6.11989 7.80297 6.03114 7.78029L3.73011 7.19225C3.34493 7.09382 3.00449 7.46253 3.13327 7.83865L8.66683 24Z" fill="#5CC6FE"/>
<path d="M8.66683 24L8.19379 24.162L8.30953 24.5H8.66683V24ZM32.8335 17.1853L32.3624 17.0177L32.3539 17.0417L32.3478 17.0665L32.8335 17.1853ZM13.6668 11.2223L13.2257 10.987L13.2216 10.9947L13.2177 11.0026L13.6668 11.2223ZM13.0571 12.4689L12.6079 12.2492L13.0571 12.4689ZM12.3804 12.6944L12.6079 12.2492L12.3804 12.6944ZM9.44304 11.1639L9.80045 10.8143L9.44304 11.1639ZM9.5729 11.2595L9.34535 11.7047L9.5729 11.2595ZM3.73011 7.19225L3.60631 7.67668L3.73011 7.19225ZM6.03114 7.78029L6.15494 7.29586L6.03114 7.78029ZM6.26476 7.91507L5.90735 8.26472L6.26476 7.91507ZM19.1064 2.68645L19.5487 2.45342L19.1064 2.68645ZM18.2229 2.68409L17.7817 2.4487L18.2229 2.68409ZM24.3163 12.5769L23.8739 12.81L24.3163 12.5769ZM24.8803 12.8246L24.7465 12.3428L24.8803 12.8246ZM35.6533 9.25861L36.1244 9.42619L35.6533 9.25861ZM34.8626 8.61574L35.1089 9.05089L34.8626 8.61574ZM8.66683 24.5C8.70329 24.5 8.73965 24.5 8.7759 24.5C8.81216 24.5 8.84832 24.5 8.88438 24.5C8.92044 24.5 8.9564 24.5 8.99226 24.5C9.02812 24.5 9.06388 24.5 9.09954 24.5C9.1352 24.5 9.17076 24.5 9.20623 24.5C9.24169 24.5 9.27706 24.5 9.31232 24.5C9.34759 24.5 9.38275 24.5 9.41782 24.5C9.45289 24.5 9.48786 24.5 9.52273 24.5C9.5576 24.5 9.59237 24.5 9.62705 24.5C9.66172 24.5 9.6963 24.5 9.73078 24.5C9.76525 24.5 9.79964 24.5 9.83392 24.5C9.8682 24.5 9.90239 24.5 9.93647 24.5C9.97056 24.5 10.0045 24.5 10.0384 24.5C10.0723 24.5 10.1061 24.5 10.1398 24.5C10.1735 24.5 10.2071 24.5 10.2406 24.5C10.2741 24.5 10.3075 24.5 10.3409 24.5C10.3742 24.5 10.4074 24.5 10.4405 24.5C10.4736 24.5 10.5066 24.5 10.5396 24.5C10.5725 24.5 10.6053 24.5 10.638 24.5C10.6708 24.5 10.7034 24.5 10.7359 24.5C10.7685 24.5 10.8009 24.5 10.8333 24.5C10.8656 24.5 10.8979 24.5 10.93 24.5C10.9622 24.5 10.9942 24.5 11.0262 24.5C11.0582 24.5 11.0901 24.5 11.1218 24.5C11.1536 24.5 11.1853 24.5 11.2169 24.5C11.2485 24.5 11.2799 24.5 11.3113 24.5C11.3427 24.5 11.374 24.5 11.4052 24.5C11.4365 24.5 11.4676 24.5 11.4986 24.5C11.5296 24.5 11.5605 24.5 11.5914 24.5C11.6222 24.5 11.6529 24.5 11.6836 24.5C11.7142 24.5 11.7448 24.5 11.7752 24.5C11.8057 24.5 11.836 24.5 11.8663 24.5C11.8966 24.5 11.9267 24.5 11.9568 24.5C11.9869 24.5 12.0169 24.5 12.0468 24.5C12.0767 24.5 12.1065 24.5 12.1362 24.5C12.1659 24.5 12.1955 24.5 12.225 24.5C12.2546 24.5 12.284 24.5 12.3133 24.5C12.3427 24.5 12.3719 24.5 12.4011 24.5C12.4302 24.5 12.4593 24.5 12.4882 24.5C12.5172 24.5 12.5461 24.5 12.5749 24.5C12.6037 24.5 12.6324 24.5 12.661 24.5C12.6896 24.5 12.7181 24.5 12.7465 24.5C12.7749 24.5 12.8032 24.5 12.8315 24.5C12.8597 24.5 12.8879 24.5 12.9159 24.5C12.944 24.5 12.9719 24.5 12.9998 24.5C13.0277 24.5 13.0555 24.5 13.0832 24.5C13.1108 24.5 13.1384 24.5 13.166 24.5C13.1935 24.5 13.2209 24.5 13.2482 24.5C13.2755 24.5 13.3028 24.5 13.3299 24.5C13.3571 24.5 13.3842 24.5 13.4111 24.5C13.4381 24.5 13.465 24.5 13.4918 24.5C13.5186 24.5 13.5453 24.5 13.5719 24.5C13.5985 24.5 13.625 24.5 13.6514 24.5C13.6779 24.5 13.7042 24.5 13.7305 24.5C13.7567 24.5 13.7829 24.5 13.809 24.5C13.8351 24.5 13.861 24.5 13.8869 24.5C13.9128 24.5 13.9387 24.5 13.9644 24.5C13.9901 24.5 14.0157 24.5 14.0413 24.5C14.0668 24.5 14.0923 24.5 14.1177 24.5C14.1431 24.5 14.1683 24.5 14.1935 24.5C14.2187 24.5 14.2438 24.5 14.2689 24.5C14.2939 24.5 14.3188 24.5 14.3437 24.5C14.3685 24.5 14.3933 24.5 14.4179 24.5C14.4426 24.5 14.4672 24.5 14.4917 24.5C14.5162 24.5 14.5406 24.5 14.5649 24.5C14.5893 24.5 14.6135 24.5 14.6377 24.5C14.6618 24.5 14.6859 24.5 14.7098 24.5C14.7338 24.5 14.7577 24.5 14.7815 24.5C14.8053 24.5 14.8291 24.5 14.8527 24.5C14.8763 24.5 14.8999 24.5 14.9233 24.5C14.9468 24.5 14.9702 24.5 14.9935 24.5C15.0168 24.5 15.04 24.5 15.0631 24.5C15.0862 24.5 15.1093 24.5 15.1322 24.5C15.1552 24.5 15.178 24.5 15.2008 24.5C15.2236 24.5 15.2463 24.5 15.2689 24.5C15.2915 24.5 15.3141 24.5 15.3365 24.5C15.3589 24.5 15.3813 24.5 15.4036 24.5C15.4259 24.5 15.448 24.5 15.4702 24.5C15.4923 24.5 15.5143 24.5 15.5362 24.5C15.5582 24.5 15.58 24.5 15.6018 24.5C15.6236 24.5 15.6453 24.5 15.6669 24.5C15.6885 24.5 15.71 24.5 15.7314 24.5C15.7529 24.5 15.7742 24.5 15.7955 24.5C15.8168 24.5 15.838 24.5 15.8591 24.5C15.8802 24.5 15.9012 24.5 15.9221 24.5C15.9431 24.5 15.964 24.5 15.9847 24.5C16.0055 24.5 16.0262 24.5 16.0468 24.5C16.0674 24.5 16.088 24.5 16.1084 24.5C16.1289 24.5 16.1492 24.5 16.1695 24.5C16.1898 24.5 16.21 24.5 16.2301 24.5C16.2502 24.5 16.2703 24.5 16.2902 24.5C16.3102 24.5 16.3301 24.5 16.3499 24.5C16.3697 24.5 16.3894 24.5 16.409 24.5C16.4287 24.5 16.4482 24.5 16.4677 24.5C16.4872 24.5 16.5066 24.5 16.5259 24.5C16.5452 24.5 16.5644 24.5 16.5836 24.5C16.6027 24.5 16.6218 24.5 16.6408 24.5C16.6598 24.5 16.6787 24.5 16.6975 24.5C16.7164 24.5 16.7351 24.5 16.7538 24.5C16.7725 24.5 16.7911 24.5 16.8096 24.5C16.8281 24.5 16.8465 24.5 16.8649 24.5C16.8832 24.5 16.9015 24.5 16.9197 24.5C16.9379 24.5 16.956 24.5 16.9741 24.5C16.9921 24.5 17.0101 24.5 17.0279 24.5C17.0458 24.5 17.0636 24.5 17.0813 24.5C17.0991 24.5 17.1167 24.5 17.1343 24.5C17.1518 24.5 17.1693 24.5 17.1868 24.5C17.2042 24.5 17.2215 24.5 17.2388 24.5C17.256 24.5 17.2732 24.5 17.2903 24.5C17.3074 24.5 17.3244 24.5 17.3414 24.5C17.3583 24.5 17.3752 24.5 17.392 24.5C17.4088 24.5 17.4255 24.5 17.4421 24.5C17.4587 24.5 17.4753 24.5 17.4918 24.5C17.5083 24.5 17.5247 24.5 17.541 24.5C17.5573 24.5 17.5736 24.5 17.5898 24.5C17.6059 24.5 17.6221 24.5 17.6381 24.5C17.6541 24.5 17.6701 24.5 17.6859 24.5C17.7018 24.5 17.7176 24.5 17.7333 24.5C17.749 24.5 17.7647 24.5 17.7803 24.5C17.7958 24.5 17.8113 24.5 17.8267 24.5C17.8422 24.5 17.8575 24.5 17.8728 24.5C17.888 24.5 17.9032 24.5 17.9184 24.5C17.9335 24.5 17.9485 24.5 17.9635 24.5C17.9785 24.5 17.9933 24.5 18.0082 24.5C18.023 24.5 18.0377 24.5 18.0524 24.5C18.0671 24.5 18.0817 24.5 18.0962 24.5C18.1107 24.5 18.1252 24.5 18.1395 24.5C18.1539 24.5 18.1682 24.5 18.1825 24.5C18.1967 24.5 18.2108 24.5 18.2249 24.5C18.239 24.5 18.253 24.5 18.2669 24.5C18.2809 24.5 18.2947 24.5 18.3085 24.5C18.3223 24.5 18.336 24.5 18.3497 24.5C18.3633 24.5 18.3769 24.5 18.3904 24.5C18.4039 24.5 18.4173 24.5 18.4306 24.5C18.444 24.5 18.4573 24.5 18.4705 24.5C18.4837 24.5 18.4968 24.5 18.5099 24.5C18.523 24.5 18.5359 24.5 18.5489 24.5C18.5618 24.5 18.5746 24.5 18.5874 24.5C18.6002 24.5 18.6129 24.5 18.6255 24.5C18.6382 24.5 18.6507 24.5 18.6632 24.5C18.6757 24.5 18.6881 24.5 18.7005 24.5C18.7128 24.5 18.7251 24.5 18.7373 24.5C18.7495 24.5 18.7616 24.5 18.7737 24.5C18.7858 24.5 18.7978 24.5 18.8097 24.5C18.8216 24.5 18.8335 24.5 18.8452 24.5C18.857 24.5 18.8687 24.5 18.8804 24.5C18.892 24.5 18.9036 24.5 18.9151 24.5C18.9266 24.5 18.938 24.5 18.9494 24.5C18.9608 24.5 18.9721 24.5 18.9833 24.5C18.9945 24.5 19.0057 24.5 19.0168 24.5C19.0279 24.5 19.0389 24.5 19.0498 24.5C19.0608 24.5 19.0716 24.5 19.0825 24.5C19.0933 24.5 19.104 24.5 19.1147 24.5C19.1254 24.5 19.136 24.5 19.1465 24.5C19.157 24.5 19.1675 24.5 19.1779 24.5C19.1883 24.5 19.1987 24.5 19.2089 24.5C19.2192 24.5 19.2294 24.5 19.2395 24.5C19.2496 24.5 19.2597 24.5 19.2697 24.5C19.2797 24.5 19.2896 24.5 19.2995 24.5C19.3093 24.5 19.3191 24.5 19.3289 24.5C19.3386 24.5 19.3482 24.5 19.3578 24.5C19.3674 24.5 19.377 24.5 19.3864 24.5C19.3959 24.5 19.4053 24.5 19.4146 24.5C19.4239 24.5 19.4332 24.5 19.4424 24.5C19.4516 24.5 19.4607 24.5 19.4697 24.5C19.4788 24.5 19.4878 24.5 19.4967 24.5C19.5057 24.5 19.5145 24.5 19.5233 24.5C19.5321 24.5 19.5408 24.5 19.5495 24.5C19.5582 24.5 19.5668 24.5 19.5753 24.5C19.5838 24.5 19.5923 24.5 19.6007 24.5C19.6091 24.5 19.6175 24.5 19.6257 24.5C19.634 24.5 19.6422 24.5 19.6504 24.5C19.6585 24.5 19.6666 24.5 19.6746 24.5C19.6826 24.5 19.6906 24.5 19.6985 24.5C19.7064 24.5 19.7142 24.5 19.722 24.5C19.7297 24.5 19.7374 24.5 19.745 24.5C19.7527 24.5 19.7602 24.5 19.7678 24.5C19.7753 24.5 19.7827 24.5 19.7901 24.5C19.7975 24.5 19.8048 24.5 19.812 24.5C19.8193 24.5 19.8265 24.5 19.8336 24.5C19.8407 24.5 19.8478 24.5 19.8548 24.5C19.8618 24.5 19.8687 24.5 19.8756 24.5C19.8825 24.5 19.8893 24.5 19.896 24.5C19.9028 24.5 19.9095 24.5 19.9161 24.5C19.9227 24.5 19.9293 24.5 19.9358 24.5C19.9423 24.5 19.9487 24.5 19.9551 24.5C19.9615 24.5 19.9678 24.5 19.9741 24.5C19.9803 24.5 19.9865 24.5 19.9926 24.5C19.9988 24.5 20.0049 24.5 20.0109 24.5C20.0169 24.5 20.0228 24.5 20.0287 24.5C20.0346 24.5 20.0404 24.5 20.0462 24.5C20.052 24.5 20.0577 24.5 20.0633 24.5C20.069 24.5 20.0745 24.5 20.0801 24.5C20.0856 24.5 20.0911 24.5 20.0965 24.5C20.1019 24.5 20.1072 24.5 20.1125 24.5C20.1178 24.5 20.123 24.5 20.1282 24.5C20.1333 24.5 20.1384 24.5 20.1435 24.5C20.1485 24.5 20.1535 24.5 20.1585 24.5C20.1634 24.5 20.1682 24.5 20.1731 24.5C20.1779 24.5 20.1826 24.5 20.1873 24.5C20.192 24.5 20.1966 24.5 20.2012 24.5C20.2058 24.5 20.2103 24.5 20.2148 24.5C20.2192 24.5 20.2236 24.5 20.228 24.5C20.2323 24.5 20.2366 24.5 20.2408 24.5C20.245 24.5 20.2492 24.5 20.2533 24.5C20.2574 24.5 20.2615 24.5 20.2655 24.5C20.2694 24.5 20.2734 24.5 20.2773 24.5C20.2811 24.5 20.285 24.5 20.2887 24.5C20.2925 24.5 20.2962 24.5 20.2998 24.5C20.3035 24.5 20.3071 24.5 20.3106 24.5C20.3142 24.5 20.3176 24.5 20.3211 24.5C20.3245 24.5 20.3279 24.5 20.3312 24.5C20.3345 24.5 20.3377 24.5 20.3409 24.5C20.3441 24.5 20.3473 24.5 20.3504 24.5C20.3534 24.5 20.3565 24.5 20.3594 24.5C20.3624 24.5 20.3653 24.5 20.3682 24.5C20.3711 24.5 20.3739 24.5 20.3766 24.5C20.3794 24.5 20.3821 24.5 20.3847 24.5C20.3873 24.5 20.3899 24.5 20.3925 24.5C20.395 24.5 20.3975 24.5 20.3999 24.5C20.4023 24.5 20.4047 24.5 20.407 24.5C20.4093 24.5 20.4116 24.5 20.4138 24.5C20.416 24.5 20.4181 24.5 20.4202 24.5C20.4223 24.5 20.4244 24.5 20.4264 24.5C20.4283 24.5 20.4303 24.5 20.4322 24.5C20.434 24.5 20.4359 24.5 20.4376 24.5C20.4394 24.5 20.4411 24.5 20.4428 24.5C20.4445 24.5 20.4461 24.5 20.4476 24.5C20.4492 24.5 20.4507 24.5 20.4522 24.5C20.4536 24.5 20.455 24.5 20.4564 24.5C20.4577 24.5 20.459 24.5 20.4602 24.5C20.4615 24.5 20.4627 24.5 20.4638 24.5C20.465 24.5 20.4661 24.5 20.4671 24.5C20.4681 24.5 20.4691 24.5 20.47 24.5C20.471 24.5 20.4718 24.5 20.4727 24.5C20.4735 24.5 20.4743 24.5 20.475 24.5C20.4757 24.5 20.4764 24.5 20.477 24.5C20.4776 24.5 20.4782 24.5 20.4787 24.5C20.4793 24.5 20.4797 24.5 20.4801 24.5C20.4806 24.5 20.4809 24.5 20.4813 24.5C20.4816 24.5 20.4818 24.5 20.4821 24.5C20.4823 24.5 20.4824 24.5 20.4826 24.5C20.4827 24.5 20.4827 24.5 20.4827 24.5C20.4828 24 20.4827 23.5 20.4826 23.5C20.4826 23.5 20.4824 23.5 20.4822 23.5C20.4821 23.5 20.4818 23.5 20.4815 23.5C20.4813 23.5 20.4809 23.5 20.4806 23.5C20.4802 23.5 20.4797 23.5 20.4793 23.5C20.4788 23.5 20.4783 23.5 20.4777 23.5C20.4771 23.5 20.4765 23.5 20.4758 23.5C20.4751 23.5 20.4744 23.5 20.4736 23.5C20.4729 23.5 20.4721 23.5 20.4712 23.5C20.4703 23.5 20.4694 23.5 20.4684 23.5C20.4675 23.5 20.4665 23.5 20.4654 23.5C20.4644 23.5 20.4633 23.5 20.4621 23.5C20.4609 23.5 20.4597 23.5 20.4585 23.5C20.4572 23.5 20.456 23.5 20.4546 23.5C20.4533 23.5 20.4519 23.5 20.4504 23.5C20.449 23.5 20.4475 23.5 20.446 23.5C20.4445 23.5 20.4429 23.5 20.4413 23.5C20.4396 23.5 20.438 23.5 20.4363 23.5C20.4345 23.5 20.4328 23.5 20.431 23.5C20.4292 23.5 20.4273 23.5 20.4254 23.5C20.4235 23.5 20.4216 23.5 20.4196 23.5C20.4176 23.5 20.4156 23.5 20.4135 23.5C20.4114 23.5 20.4093 23.5 20.4071 23.5C20.4049 23.5 20.4027 23.5 20.4004 23.5C20.3982 23.5 20.3959 23.5 20.3935 23.5C20.3912 23.5 20.3888 23.5 20.3863 23.5C20.3839 23.5 20.3814 23.5 20.3789 23.5C20.3763 23.5 20.3738 23.5 20.3711 23.5C20.3685 23.5 20.3659 23.5 20.3631 23.5C20.3604 23.5 20.3577 23.5 20.3549 23.5C20.3521 23.5 20.3493 23.5 20.3464 23.5C20.3435 23.5 20.3406 23.5 20.3376 23.5C20.3346 23.5 20.3316 23.5 20.3286 23.5C20.3255 23.5 20.3224 23.5 20.3193 23.5C20.3161 23.5 20.3129 23.5 20.3097 23.5C20.3065 23.5 20.3032 23.5 20.2999 23.5C20.2966 23.5 20.2932 23.5 20.2898 23.5C20.2864 23.5 20.283 23.5 20.2795 23.5C20.276 23.5 20.2725 23.5 20.2689 23.5C20.2654 23.5 20.2618 23.5 20.2581 23.5C20.2545 23.5 20.2508 23.5 20.247 23.5C20.2433 23.5 20.2395 23.5 20.2357 23.5C20.2319 23.5 20.2281 23.5 20.2242 23.5C20.2203 23.5 20.2163 23.5 20.2123 23.5C20.2084 23.5 20.2043 23.5 20.2003 23.5C20.1962 23.5 20.1921 23.5 20.188 23.5C20.1838 23.5 20.1796 23.5 20.1754 23.5C20.1712 23.5 20.1669 23.5 20.1626 23.5C20.1583 23.5 20.154 23.5 20.1496 23.5C20.1452 23.5 20.1408 23.5 20.1363 23.5C20.1319 23.5 20.1274 23.5 20.1228 23.5C20.1183 23.5 20.1137 23.5 20.1091 23.5C20.1045 23.5 20.0998 23.5 20.0951 23.5C20.0904 23.5 20.0857 23.5 20.0809 23.5C20.0761 23.5 20.0713 23.5 20.0664 23.5C20.0616 23.5 20.0567 23.5 20.0518 23.5C20.0468 23.5 20.0419 23.5 20.0369 23.5C20.0318 23.5 20.0268 23.5 20.0217 23.5C20.0166 23.5 20.0115 23.5 20.0064 23.5C20.0012 23.5 19.996 23.5 19.9908 23.5C19.9855 23.5 19.9803 23.5 19.9749 23.5C19.9696 23.5 19.9643 23.5 19.9589 23.5C19.9535 23.5 19.9481 23.5 19.9426 23.5C19.9372 23.5 19.9317 23.5 19.9262 23.5C19.9206 23.5 19.9151 23.5 19.9094 23.5C19.9038 23.5 19.8982 23.5 19.8925 23.5C19.8868 23.5 19.8811 23.5 19.8754 23.5C19.8696 23.5 19.8638 23.5 19.858 23.5C19.8522 23.5 19.8463 23.5 19.8404 23.5C19.8345 23.5 19.8286 23.5 19.8226 23.5C19.8167 23.5 19.8107 23.5 19.8046 23.5C19.7986 23.5 19.7925 23.5 19.7864 23.5C19.7803 23.5 19.7742 23.5 19.768 23.5C19.7618 23.5 19.7556 23.5 19.7494 23.5C19.7431 23.5 19.7368 23.5 19.7305 23.5C19.7242 23.5 19.7179 23.5 19.7115 23.5C19.7051 23.5 19.6987 23.5 19.6922 23.5C19.6858 23.5 19.6793 23.5 19.6728 23.5C19.6662 23.5 19.6597 23.5 19.6531 23.5C19.6465 23.5 19.6399 23.5 19.6332 23.5C19.6266 23.5 19.6199 23.5 19.6132 23.5C19.6064 23.5 19.5997 23.5 19.5929 23.5C19.5861 23.5 19.5793 23.5 19.5724 23.5C19.5656 23.5 19.5587 23.5 19.5518 23.5C19.5449 23.5 19.5379 23.5 19.5309 23.5C19.5239 23.5 19.5169 23.5 19.5099 23.5C19.5028 23.5 19.4957 23.5 19.4886 23.5C19.4815 23.5 19.4744 23.5 19.4672 23.5C19.46 23.5 19.4528 23.5 19.4456 23.5C19.4383 23.5 19.431 23.5 19.4237 23.5C19.4164 23.5 19.4091 23.5 19.4017 23.5C19.3944 23.5 19.387 23.5 19.3795 23.5C19.3721 23.5 19.3647 23.5 19.3572 23.5C19.3497 23.5 19.3422 23.5 19.3346 23.5C19.3271 23.5 19.3195 23.5 19.3119 23.5C19.3042 23.5 19.2966 23.5 19.2889 23.5C19.2813 23.5 19.2736 23.5 19.2658 23.5C19.2581 23.5 19.2503 23.5 19.2425 23.5C19.2347 23.5 19.2269 23.5 19.2191 23.5C19.2112 23.5 19.2033 23.5 19.1954 23.5C19.1875 23.5 19.1796 23.5 19.1716 23.5C19.1636 23.5 19.1556 23.5 19.1476 23.5C19.1396 23.5 19.1315 23.5 19.1234 23.5C19.1154 23.5 19.1072 23.5 19.0991 23.5C19.091 23.5 19.0828 23.5 19.0746 23.5C19.0664 23.5 19.0582 23.5 19.0499 23.5C19.0416 23.5 19.0334 23.5 19.0251 23.5C19.0167 23.5 19.0084 23.5 19 23.5C18.9917 23.5 18.9833 23.5 18.9749 23.5C18.9664 23.5 18.958 23.5 18.9495 23.5C18.941 23.5 18.9325 23.5 18.924 23.5C18.9155 23.5 18.9069 23.5 18.8983 23.5C18.8897 23.5 18.8811 23.5 18.8725 23.5C18.8638 23.5 18.8552 23.5 18.8465 23.5C18.8378 23.5 18.8291 23.5 18.8203 23.5C18.8116 23.5 18.8028 23.5 18.794 23.5C18.7852 23.5 18.7764 23.5 18.7676 23.5C18.7587 23.5 18.7498 23.5 18.7409 23.5C18.732 23.5 18.7231 23.5 18.7142 23.5C18.7052 23.5 18.6962 23.5 18.6872 23.5C18.6782 23.5 18.6692 23.5 18.6601 23.5C18.6511 23.5 18.642 23.5 18.6329 23.5C18.6238 23.5 18.6147 23.5 18.6055 23.5C18.5964 23.5 18.5872 23.5 18.578 23.5C18.5688 23.5 18.5596 23.5 18.5503 23.5C18.5411 23.5 18.5318 23.5 18.5225 23.5C18.5132 23.5 18.5039 23.5 18.4946 23.5C18.4852 23.5 18.4759 23.5 18.4665 23.5C18.4571 23.5 18.4477 23.5 18.4382 23.5C18.4288 23.5 18.4193 23.5 18.4098 23.5C18.4003 23.5 18.3908 23.5 18.3813 23.5C18.3718 23.5 18.3622 23.5 18.3526 23.5C18.3431 23.5 18.3335 23.5 18.3238 23.5C18.3142 23.5 18.3046 23.5 18.2949 23.5C18.2852 23.5 18.2756 23.5 18.2658 23.5C18.2561 23.5 18.2464 23.5 18.2366 23.5C18.2269 23.5 18.2171 23.5 18.2073 23.5C18.1975 23.5 18.1877 23.5 18.1779 23.5C18.168 23.5 18.1582 23.5 18.1483 23.5C18.1384 23.5 18.1285 23.5 18.1185 23.5C18.1086 23.5 18.0987 23.5 18.0887 23.5C18.0787 23.5 18.0687 23.5 18.0587 23.5C18.0487 23.5 18.0387 23.5 18.0286 23.5C18.0186 23.5 18.0085 23.5 17.9984 23.5C17.9883 23.5 17.9782 23.5 17.9681 23.5C17.958 23.5 17.9478 23.5 17.9376 23.5C17.9275 23.5 17.9173 23.5 17.9071 23.5C17.8968 23.5 17.8866 23.5 17.8764 23.5C17.8661 23.5 17.8558 23.5 17.8455 23.5C17.8353 23.5 17.8249 23.5 17.8146 23.5C17.8043 23.5 17.7939 23.5 17.7836 23.5C17.7732 23.5 17.7628 23.5 17.7524 23.5C17.742 23.5 17.7316 23.5 17.7212 23.5C17.7107 23.5 17.7003 23.5 17.6898 23.5C17.6793 23.5 17.6688 23.5 17.6583 23.5C17.6478 23.5 17.6372 23.5 17.6267 23.5C17.6162 23.5 17.6056 23.5 17.595 23.5C17.5844 23.5 17.5738 23.5 17.5632 23.5C17.5526 23.5 17.5419 23.5 17.5313 23.5C17.5206 23.5 17.51 23.5 17.4993 23.5C17.4886 23.5 17.4779 23.5 17.4672 23.5C17.4564 23.5 17.4457 23.5 17.4349 23.5C17.4242 23.5 17.4134 23.5 17.4026 23.5C17.3918 23.5 17.381 23.5 17.3702 23.5C17.3594 23.5 17.3486 23.5 17.3377 23.5C17.3269 23.5 17.316 23.5 17.3051 23.5C17.2942 23.5 17.2833 23.5 17.2724 23.5C17.2615 23.5 17.2506 23.5 17.2396 23.5C17.2287 23.5 17.2177 23.5 17.2067 23.5C17.1958 23.5 17.1848 23.5 17.1738 23.5C17.1627 23.5 17.1517 23.5 17.1407 23.5C17.1297 23.5 17.1186 23.5 17.1075 23.5C17.0965 23.5 17.0854 23.5 17.0743 23.5C17.0632 23.5 17.0521 23.5 17.041 23.5C17.0299 23.5 17.0187 23.5 17.0076 23.5C16.9964 23.5 16.9853 23.5 16.9741 23.5C16.9629 23.5 16.9517 23.5 16.9405 23.5C16.9293 23.5 16.9181 23.5 16.9068 23.5C16.8956 23.5 16.8844 23.5 16.8731 23.5C16.8619 23.5 16.8506 23.5 16.8393 23.5C16.828 23.5 16.8167 23.5 16.8054 23.5C16.7941 23.5 16.7828 23.5 16.7714 23.5C16.7601 23.5 16.7488 23.5 16.7374 23.5C16.726 23.5 16.7147 23.5 16.7033 23.5C16.6919 23.5 16.6805 23.5 16.6691 23.5C16.6577 23.5 16.6463 23.5 16.6348 23.5C16.6234 23.5 16.612 23.5 16.6005 23.5C16.5891 23.5 16.5776 23.5 16.5661 23.5C16.5547 23.5 16.5432 23.5 16.5317 23.5C16.5202 23.5 16.5087 23.5 16.4971 23.5C16.4856 23.5 16.4741 23.5 16.4625 23.5C16.451 23.5 16.4395 23.5 16.4279 23.5C16.4163 23.5 16.4048 23.5 16.3932 23.5C16.3816 23.5 16.37 23.5 16.3584 23.5C16.3468 23.5 16.3352 23.5 16.3236 23.5C16.3119 23.5 16.3003 23.5 16.2887 23.5C16.277 23.5 16.2654 23.5 16.2537 23.5C16.242 23.5 16.2304 23.5 16.2187 23.5C16.207 23.5 16.1953 23.5 16.1836 23.5C16.1719 23.5 16.1602 23.5 16.1485 23.5C16.1368 23.5 16.1251 23.5 16.1133 23.5C16.1016 23.5 16.0899 23.5 16.0781 23.5C16.0664 23.5 16.0546 23.5 16.0429 23.5C16.0311 23.5 16.0193 23.5 16.0075 23.5C15.9958 23.5 15.984 23.5 15.9722 23.5C15.9604 23.5 15.9486 23.5 15.9368 23.5C15.9249 23.5 15.9131 23.5 15.9013 23.5C15.8895 23.5 15.8776 23.5 15.8658 23.5C15.854 23.5 15.8421 23.5 15.8303 23.5C15.8184 23.5 15.8065 23.5 15.7947 23.5C15.7828 23.5 15.7709 23.5 15.759 23.5C15.7472 23.5 15.7353 23.5 15.7234 23.5C15.7115 23.5 15.6996 23.5 15.6877 23.5C15.6758 23.5 15.6639 23.5 15.6519 23.5C15.64 23.5 15.6281 23.5 15.6162 23.5C15.6042 23.5 15.5923 23.5 15.5804 23.5C15.5684 23.5 15.5565 23.5 15.5445 23.5C15.5326 23.5 15.5206 23.5 15.5087 23.5C15.4967 23.5 15.4847 23.5 15.4728 23.5C15.4608 23.5 15.4488 23.5 15.4368 23.5C15.4248 23.5 15.4129 23.5 15.4009 23.5C15.3889 23.5 15.3769 23.5 15.3649 23.5C15.3529 23.5 15.3409 23.5 15.3289 23.5C15.3169 23.5 15.3049 23.5 15.2928 23.5C15.2808 23.5 15.2688 23.5 15.2568 23.5C15.2448 23.5 15.2327 23.5 15.2207 23.5C15.2087 23.5 15.1967 23.5 15.1846 23.5C15.1726 23.5 15.1605 23.5 15.1485 23.5C15.1365 23.5 15.1244 23.5 15.1124 23.5C15.1003 23.5 15.0883 23.5 15.0762 23.5C15.0642 23.5 15.0521 23.5 15.0401 23.5C15.028 23.5 15.0159 23.5 15.0039 23.5C14.9918 23.5 14.9798 23.5 14.9677 23.5C14.9556 23.5 14.9436 23.5 14.9315 23.5C14.9194 23.5 14.9074 23.5 14.8953 23.5C14.8832 23.5 14.8711 23.5 14.8591 23.5C14.847 23.5 14.8349 23.5 14.8228 23.5C14.8108 23.5 14.7987 23.5 14.7866 23.5C14.7745 23.5 14.7624 23.5 14.7504 23.5C14.7383 23.5 14.7262 23.5 14.7141 23.5C14.702 23.5 14.69 23.5 14.6779 23.5C14.6658 23.5 14.6537 23.5 14.6416 23.5C14.6295 23.5 14.6175 23.5 14.6054 23.5C14.5933 23.5 14.5812 23.5 14.5691 23.5C14.557 23.5 14.545 23.5 14.5329 23.5C14.5208 23.5 14.5087 23.5 14.4966 23.5C14.4846 23.5 14.4725 23.5 14.4604 23.5C14.4483 23.5 14.4362 23.5 14.4242 23.5C14.4121 23.5 14.4 23.5 14.3879 23.5C14.3759 23.5 14.3638 23.5 14.3517 23.5C14.3397 23.5 14.3276 23.5 14.3155 23.5C14.3034 23.5 14.2914 23.5 14.2793 23.5C14.2673 23.5 14.2552 23.5 14.2431 23.5C14.2311 23.5 14.219 23.5 14.207 23.5C14.1949 23.5 14.1829 23.5 14.1708 23.5C14.1588 23.5 14.1467 23.5 14.1347 23.5C14.1226 23.5 14.1106 23.5 14.0985 23.5C14.0865 23.5 14.0745 23.5 14.0624 23.5C14.0504 23.5 14.0384 23.5 14.0263 23.5C14.0143 23.5 14.0023 23.5 13.9903 23.5C13.9783 23.5 13.9663 23.5 13.9542 23.5C13.9422 23.5 13.9302 23.5 13.9182 23.5C13.9062 23.5 13.8942 23.5 13.8822 23.5C13.8702 23.5 13.8582 23.5 13.8463 23.5C13.8343 23.5 13.8223 23.5 13.8103 23.5C13.7983 23.5 13.7864 23.5 13.7744 23.5C13.7624 23.5 13.7505 23.5 13.7385 23.5C13.7266 23.5 13.7146 23.5 13.7027 23.5C13.6907 23.5 13.6788 23.5 13.6668 23.5V24.5C13.6788 24.5 13.6907 24.5 13.7027 24.5C13.7146 24.5 13.7266 24.5 13.7385 24.5C13.7505 24.5 13.7624 24.5 13.7744 24.5C13.7864 24.5 13.7983 24.5 13.8103 24.5C13.8223 24.5 13.8343 24.5 13.8463 24.5C13.8582 24.5 13.8702 24.5 13.8822 24.5C13.8942 24.5 13.9062 24.5 13.9182 24.5C13.9302 24.5 13.9422 24.5 13.9542 24.5C13.9663 24.5 13.9783 24.5 13.9903 24.5C14.0023 24.5 14.0143 24.5 14.0263 24.5C14.0384 24.5 14.0504 24.5 14.0624 24.5C14.0745 24.5 14.0865 24.5 14.0985 24.5C14.1106 24.5 14.1226 24.5 14.1347 24.5C14.1467 24.5 14.1588 24.5 14.1708 24.5C14.1829 24.5 14.1949 24.5 14.207 24.5C14.219 24.5 14.2311 24.5 14.2431 24.5C14.2552 24.5 14.2673 24.5 14.2793 24.5C14.2914 24.5 14.3034 24.5 14.3155 24.5C14.3276 24.5 14.3397 24.5 14.3517 24.5C14.3638 24.5 14.3759 24.5 14.3879 24.5C14.4 24.5 14.4121 24.5 14.4242 24.5C14.4362 24.5 14.4483 24.5 14.4604 24.5C14.4725 24.5 14.4846 24.5 14.4966 24.5C14.5087 24.5 14.5208 24.5 14.5329 24.5C14.545 24.5 14.557 24.5 14.5691 24.5C14.5812 24.5 14.5933 24.5 14.6054 24.5C14.6175 24.5 14.6295 24.5 14.6416 24.5C14.6537 24.5 14.6658 24.5 14.6779 24.5C14.69 24.5 14.702 24.5 14.7141 24.5C14.7262 24.5 14.7383 24.5 14.7504 24.5C14.7624 24.5 14.7745 24.5 14.7866 24.5C14.7987 24.5 14.8108 24.5 14.8228 24.5C14.8349 24.5 14.847 24.5 14.8591 24.5C14.8711 24.5 14.8832 24.5 14.8953 24.5C14.9074 24.5 14.9194 24.5 14.9315 24.5C14.9436 24.5 14.9556 24.5 14.9677 24.5C14.9798 24.5 14.9918 24.5 15.0039 24.5C15.0159 24.5 15.028 24.5 15.0401 24.5C15.0521 24.5 15.0642 24.5 15.0762 24.5C15.0883 24.5 15.1003 24.5 15.1124 24.5C15.1244 24.5 15.1365 24.5 15.1485 24.5C15.1605 24.5 15.1726 24.5 15.1846 24.5C15.1967 24.5 15.2087 24.5 15.2207 24.5C15.2327 24.5 15.2448 24.5 15.2568 24.5C15.2688 24.5 15.2808 24.5 15.2928 24.5C15.3049 24.5 15.3169 24.5 15.3289 24.5C15.3409 24.5 15.3529 24.5 15.3649 24.5C15.3769 24.5 15.3889 24.5 15.4009 24.5C15.4129 24.5 15.4248 24.5 15.4368 24.5C15.4488 24.5 15.4608 24.5 15.4728 24.5C15.4847 24.5 15.4967 24.5 15.5087 24.5C15.5206 24.5 15.5326 24.5 15.5445 24.5C15.5565 24.5 15.5684 24.5 15.5804 24.5C15.5923 24.5 15.6042 24.5 15.6162 24.5C15.6281 24.5 15.64 24.5 15.6519 24.5C15.6639 24.5 15.6758 24.5 15.6877 24.5C15.6996 24.5 15.7115 24.5 15.7234 24.5C15.7353 24.5 15.7472 24.5 15.759 24.5C15.7709 24.5 15.7828 24.5 15.7947 24.5C15.8065 24.5 15.8184 24.5 15.8303 24.5C15.8421 24.5 15.854 24.5 15.8658 24.5C15.8776 24.5 15.8895 24.5 15.9013 24.5C15.9131 24.5 15.9249 24.5 15.9368 24.5C15.9486 24.5 15.9604 24.5 15.9722 24.5C15.984 24.5 15.9958 24.5 16.0075 24.5C16.0193 24.5 16.0311 24.5 16.0429 24.5C16.0546 24.5 16.0664 24.5 16.0781 24.5C16.0899 24.5 16.1016 24.5 16.1133 24.5C16.1251 24.5 16.1368 24.5 16.1485 24.5C16.1602 24.5 16.1719 24.5 16.1836 24.5C16.1953 24.5 16.207 24.5 16.2187 24.5C16.2304 24.5 16.242 24.5 16.2537 24.5C16.2654 24.5 16.277 24.5 16.2887 24.5C16.3003 24.5 16.3119 24.5 16.3236 24.5C16.3352 24.5 16.3468 24.5 16.3584 24.5C16.37 24.5 16.3816 24.5 16.3932 24.5C16.4048 24.5 16.4163 24.5 16.4279 24.5C16.4395 24.5 16.451 24.5 16.4625 24.5C16.4741 24.5 16.4856 24.5 16.4971 24.5C16.5087 24.5 16.5202 24.5 16.5317 24.5C16.5432 24.5 16.5547 24.5 16.5661 24.5C16.5776 24.5 16.5891 24.5 16.6005 24.5C16.612 24.5 16.6234 24.5 16.6348 24.5C16.6463 24.5 16.6577 24.5 16.6691 24.5C16.6805 24.5 16.6919 24.5 16.7033 24.5C16.7147 24.5 16.726 24.5 16.7374 24.5C16.7488 24.5 16.7601 24.5 16.7714 24.5C16.7828 24.5 16.7941 24.5 16.8054 24.5C16.8167 24.5 16.828 24.5 16.8393 24.5C16.8506 24.5 16.8619 24.5 16.8731 24.5C16.8844 24.5 16.8956 24.5 16.9068 24.5C16.9181 24.5 16.9293 24.5 16.9405 24.5C16.9517 24.5 16.9629 24.5 16.9741 24.5C16.9853 24.5 16.9964 24.5 17.0076 24.5C17.0187 24.5 17.0299 24.5 17.041 24.5C17.0521 24.5 17.0632 24.5 17.0743 24.5C17.0854 24.5 17.0965 24.5 17.1075 24.5C17.1186 24.5 17.1297 24.5 17.1407 24.5C17.1517 24.5 17.1627 24.5 17.1738 24.5C17.1848 24.5 17.1958 24.5 17.2067 24.5C17.2177 24.5 17.2287 24.5 17.2396 24.5C17.2506 24.5 17.2615 24.5 17.2724 24.5C17.2833 24.5 17.2942 24.5 17.3051 24.5C17.316 24.5 17.3269 24.5 17.3377 24.5C17.3486 24.5 17.3594 24.5 17.3702 24.5C17.381 24.5 17.3918 24.5 17.4026 24.5C17.4134 24.5 17.4242 24.5 17.4349 24.5C17.4457 24.5 17.4564 24.5 17.4672 24.5C17.4779 24.5 17.4886 24.5 17.4993 24.5C17.51 24.5 17.5206 24.5 17.5313 24.5C17.5419 24.5 17.5526 24.5 17.5632 24.5C17.5738 24.5 17.5844 24.5 17.595 24.5C17.6056 24.5 17.6162 24.5 17.6267 24.5C17.6372 24.5 17.6478 24.5 17.6583 24.5C17.6688 24.5 17.6793 24.5 17.6898 24.5C17.7003 24.5 17.7107 24.5 17.7212 24.5C17.7316 24.5 17.742 24.5 17.7524 24.5C17.7628 24.5 17.7732 24.5 17.7836 24.5C17.7939 24.5 17.8043 24.5 17.8146 24.5C17.8249 24.5 17.8353 24.5 17.8455 24.5C17.8558 24.5 17.8661 24.5 17.8764 24.5C17.8866 24.5 17.8968 24.5 17.9071 24.5C17.9173 24.5 17.9275 24.5 17.9376 24.5C17.9478 24.5 17.958 24.5 17.9681 24.5C17.9782 24.5 17.9883 24.5 17.9984 24.5C18.0085 24.5 18.0186 24.5 18.0286 24.5C18.0387 24.5 18.0487 24.5 18.0587 24.5C18.0687 24.5 18.0787 24.5 18.0887 24.5C18.0987 24.5 18.1086 24.5 18.1185 24.5C18.1285 24.5 18.1384 24.5 18.1483 24.5C18.1582 24.5 18.168 24.5 18.1779 24.5C18.1877 24.5 18.1975 24.5 18.2073 24.5C18.2171 24.5 18.2269 24.5 18.2366 24.5C18.2464 24.5 18.2561 24.5 18.2658 24.5C18.2756 24.5 18.2852 24.5 18.2949 24.5C18.3046 24.5 18.3142 24.5 18.3238 24.5C18.3335 24.5 18.3431 24.5 18.3526 24.5C18.3622 24.5 18.3718 24.5 18.3813 24.5C18.3908 24.5 18.4003 24.5 18.4098 24.5C18.4193 24.5 18.4288 24.5 18.4382 24.5C18.4477 24.5 18.4571 24.5 18.4665 24.5C18.4759 24.5 18.4852 24.5 18.4946 24.5C18.5039 24.5 18.5132 24.5 18.5225 24.5C18.5318 24.5 18.5411 24.5 18.5503 24.5C18.5596 24.5 18.5688 24.5 18.578 24.5C18.5872 24.5 18.5964 24.5 18.6055 24.5C18.6147 24.5 18.6238 24.5 18.6329 24.5C18.642 24.5 18.6511 24.5 18.6601 24.5C18.6692 24.5 18.6782 24.5 18.6872 24.5C18.6962 24.5 18.7052 24.5 18.7142 24.5C18.7231 24.5 18.732 24.5 18.7409 24.5C18.7498 24.5 18.7587 24.5 18.7676 24.5C18.7764 24.5 18.7852 24.5 18.794 24.5C18.8028 24.5 18.8116 24.5 18.8203 24.5C18.8291 24.5 18.8378 24.5 18.8465 24.5C18.8552 24.5 18.8638 24.5 18.8725 24.5C18.8811 24.5 18.8897 24.5 18.8983 24.5C18.9069 24.5 18.9155 24.5 18.924 24.5C18.9325 24.5 18.941 24.5 18.9495 24.5C18.958 24.5 18.9664 24.5 18.9749 24.5C18.9833 24.5 18.9917 24.5 19 24.5C19.0084 24.5 19.0167 24.5 19.0251 24.5C19.0334 24.5 19.0416 24.5 19.0499 24.5C19.0582 24.5 19.0664 24.5 19.0746 24.5C19.0828 24.5 19.091 24.5 19.0991 24.5C19.1072 24.5 19.1154 24.5 19.1234 24.5C19.1315 24.5 19.1396 24.5 19.1476 24.5C19.1556 24.5 19.1636 24.5 19.1716 24.5C19.1796 24.5 19.1875 24.5 19.1954 24.5C19.2033 24.5 19.2112 24.5 19.2191 24.5C19.2269 24.5 19.2347 24.5 19.2425 24.5C19.2503 24.5 19.2581 24.5 19.2658 24.5C19.2736 24.5 19.2813 24.5 19.2889 24.5C19.2966 24.5 19.3042 24.5 19.3119 24.5C19.3195 24.5 19.3271 24.5 19.3346 24.5C19.3422 24.5 19.3497 24.5 19.3572 24.5C19.3647 24.5 19.3721 24.5 19.3795 24.5C19.387 24.5 19.3944 24.5 19.4017 24.5C19.4091 24.5 19.4164 24.5 19.4237 24.5C19.431 24.5 19.4383 24.5 19.4456 24.5C19.4528 24.5 19.46 24.5 19.4672 24.5C19.4744 24.5 19.4815 24.5 19.4886 24.5C19.4957 24.5 19.5028 24.5 19.5099 24.5C19.5169 24.5 19.5239 24.5 19.5309 24.5C19.5379 24.5 19.5449 24.5 19.5518 24.5C19.5587 24.5 19.5656 24.5 19.5724 24.5C19.5793 24.5 19.5861 24.5 19.5929 24.5C19.5997 24.5 19.6064 24.5 19.6132 24.5C19.6199 24.5 19.6266 24.5 19.6332 24.5C19.6399 24.5 19.6465 24.5 19.6531 24.5C19.6597 24.5 19.6662 24.5 19.6728 24.5C19.6793 24.5 19.6858 24.5 19.6922 24.5C19.6987 24.5 19.7051 24.5 19.7115 24.5C19.7179 24.5 19.7242 24.5 19.7305 24.5C19.7368 24.5 19.7431 24.5 19.7494 24.5C19.7556 24.5 19.7618 24.5 19.768 24.5C19.7742 24.5 19.7803 24.5 19.7864 24.5C19.7925 24.5 19.7986 24.5 19.8046 24.5C19.8107 24.5 19.8167 24.5 19.8226 24.5C19.8286 24.5 19.8345 24.5 19.8404 24.5C19.8463 24.5 19.8522 24.5 19.858 24.5C19.8638 24.5 19.8696 24.5 19.8754 24.5C19.8811 24.5 19.8868 24.5 19.8925 24.5C19.8982 24.5 19.9038 24.5 19.9094 24.5C19.9151 24.5 19.9206 24.5 19.9262 24.5C19.9317 24.5 19.9372 24.5 19.9426 24.5C19.9481 24.5 19.9535 24.5 19.9589 24.5C19.9643 24.5 19.9696 24.5 19.9749 24.5C19.9803 24.5 19.9855 24.5 19.9908 24.5C19.996 24.5 20.0012 24.5 20.0064 24.5C20.0115 24.5 20.0166 24.5 20.0217 24.5C20.0268 24.5 20.0318 24.5 20.0369 24.5C20.0419 24.5 20.0468 24.5 20.0518 24.5C20.0567 24.5 20.0616 24.5 20.0664 24.5C20.0713 24.5 20.0761 24.5 20.0809 24.5C20.0857 24.5 20.0904 24.5 20.0951 24.5C20.0998 24.5 20.1045 24.5 20.1091 24.5C20.1137 24.5 20.1183 24.5 20.1228 24.5C20.1274 24.5 20.1319 24.5 20.1363 24.5C20.1408 24.5 20.1452 24.5 20.1496 24.5C20.154 24.5 20.1583 24.5 20.1626 24.5C20.1669 24.5 20.1712 24.5 20.1754 24.5C20.1796 24.5 20.1838 24.5 20.188 24.5C20.1921 24.5 20.1962 24.5 20.2003 24.5C20.2043 24.5 20.2084 24.5 20.2123 24.5C20.2163 24.5 20.2203 24.5 20.2242 24.5C20.2281 24.5 20.2319 24.5 20.2357 24.5C20.2395 24.5 20.2433 24.5 20.247 24.5C20.2508 24.5 20.2545 24.5 20.2581 24.5C20.2618 24.5 20.2654 24.5 20.2689 24.5C20.2725 24.5 20.276 24.5 20.2795 24.5C20.283 24.5 20.2864 24.5 20.2898 24.5C20.2932 24.5 20.2966 24.5 20.2999 24.5C20.3032 24.5 20.3065 24.5 20.3097 24.5C20.3129 24.5 20.3161 24.5 20.3193 24.5C20.3224 24.5 20.3255 24.5 20.3286 24.5C20.3316 24.5 20.3346 24.5 20.3376 24.5C20.3406 24.5 20.3435 24.5 20.3464 24.5C20.3493 24.5 20.3521 24.5 20.3549 24.5C20.3577 24.5 20.3604 24.5 20.3631 24.5C20.3659 24.5 20.3685 24.5 20.3711 24.5C20.3738 24.5 20.3763 24.5 20.3789 24.5C20.3814 24.5 20.3839 24.5 20.3863 24.5C20.3888 24.5 20.3912 24.5 20.3935 24.5C20.3959 24.5 20.3982 24.5 20.4004 24.5C20.4027 24.5 20.4049 24.5 20.4071 24.5C20.4093 24.5 20.4114 24.5 20.4135 24.5C20.4156 24.5 20.4176 24.5 20.4196 24.5C20.4216 24.5 20.4235 24.5 20.4254 24.5C20.4273 24.5 20.4292 24.5 20.431 24.5C20.4328 24.5 20.4345 24.5 20.4363 24.5C20.438 24.5 20.4396 24.5 20.4413 24.5C20.4429 24.5 20.4445 24.5 20.446 24.5C20.4475 24.5 20.449 24.5 20.4504 24.5C20.4519 24.5 20.4533 24.5 20.4546 24.5C20.456 24.5 20.4572 24.5 20.4585 24.5C20.4597 24.5 20.4609 24.5 20.4621 24.5C20.4633 24.5 20.4644 24.5 20.4654 24.5C20.4665 24.5 20.4675 24.5 20.4684 24.5C20.4694 24.5 20.4703 24.5 20.4712 24.5C20.4721 24.5 20.4729 24.5 20.4736 24.5C20.4744 24.5 20.4751 24.5 20.4758 24.5C20.4765 24.5 20.4771 24.5 20.4777 24.5C20.4783 24.5 20.4788 24.5 20.4793 24.5C20.4797 24.5 20.4802 24.5 20.4806 24.5C20.4809 24.5 20.4813 24.5 20.4815 24.5C20.4818 24.5 20.4821 24.5 20.4822 24.5C20.4824 24.5 20.4826 24.5 20.4826 24.5C20.4827 24.5 20.4828 24 20.4827 23.5C20.4827 23.5 20.4827 23.5 20.4826 23.5C20.4824 23.5 20.4823 23.5 20.4821 23.5C20.4818 23.5 20.4816 23.5 20.4813 23.5C20.4809 23.5 20.4806 23.5 20.4801 23.5C20.4797 23.5 20.4793 23.5 20.4787 23.5C20.4782 23.5 20.4776 23.5 20.477 23.5C20.4764 23.5 20.4757 23.5 20.475 23.5C20.4743 23.5 20.4735 23.5 20.4727 23.5C20.4718 23.5 20.471 23.5 20.47 23.5C20.4691 23.5 20.4681 23.5 20.4671 23.5C20.4661 23.5 20.465 23.5 20.4638 23.5C20.4627 23.5 20.4615 23.5 20.4602 23.5C20.459 23.5 20.4577 23.5 20.4564 23.5C20.455 23.5 20.4536 23.5 20.4522 23.5C20.4507 23.5 20.4492 23.5 20.4476 23.5C20.4461 23.5 20.4445 23.5 20.4428 23.5C20.4411 23.5 20.4394 23.5 20.4376 23.5C20.4359 23.5 20.434 23.5 20.4322 23.5C20.4303 23.5 20.4283 23.5 20.4264 23.5C20.4244 23.5 20.4223 23.5 20.4202 23.5C20.4181 23.5 20.416 23.5 20.4138 23.5C20.4116 23.5 20.4093 23.5 20.407 23.5C20.4047 23.5 20.4023 23.5 20.3999 23.5C20.3975 23.5 20.395 23.5 20.3925 23.5C20.3899 23.5 20.3873 23.5 20.3847 23.5C20.3821 23.5 20.3794 23.5 20.3766 23.5C20.3739 23.5 20.3711 23.5 20.3682 23.5C20.3653 23.5 20.3624 23.5 20.3594 23.5C20.3565 23.5 20.3534 23.5 20.3504 23.5C20.3473 23.5 20.3441 23.5 20.3409 23.5C20.3377 23.5 20.3345 23.5 20.3312 23.5C20.3279 23.5 20.3245 23.5 20.3211 23.5C20.3176 23.5 20.3142 23.5 20.3106 23.5C20.3071 23.5 20.3035 23.5 20.2998 23.5C20.2962 23.5 20.2925 23.5 20.2887 23.5C20.285 23.5 20.2811 23.5 20.2773 23.5C20.2734 23.5 20.2694 23.5 20.2655 23.5C20.2615 23.5 20.2574 23.5 20.2533 23.5C20.2492 23.5 20.245 23.5 20.2408 23.5C20.2366 23.5 20.2323 23.5 20.228 23.5C20.2236 23.5 20.2192 23.5 20.2148 23.5C20.2103 23.5 20.2058 23.5 20.2012 23.5C20.1966 23.5 20.192 23.5 20.1873 23.5C20.1826 23.5 20.1779 23.5 20.1731 23.5C20.1682 23.5 20.1634 23.5 20.1585 23.5C20.1535 23.5 20.1485 23.5 20.1435 23.5C20.1384 23.5 20.1333 23.5 20.1282 23.5C20.123 23.5 20.1178 23.5 20.1125 23.5C20.1072 23.5 20.1019 23.5 20.0965 23.5C20.0911 23.5 20.0856 23.5 20.0801 23.5C20.0745 23.5 20.069 23.5 20.0633 23.5C20.0577 23.5 20.052 23.5 20.0462 23.5C20.0404 23.5 20.0346 23.5 20.0287 23.5C20.0228 23.5 20.0169 23.5 20.0109 23.5C20.0049 23.5 19.9988 23.5 19.9926 23.5C19.9865 23.5 19.9803 23.5 19.9741 23.5C19.9678 23.5 19.9615 23.5 19.9551 23.5C19.9487 23.5 19.9423 23.5 19.9358 23.5C19.9293 23.5 19.9227 23.5 19.9161 23.5C19.9095 23.5 19.9028 23.5 19.896 23.5C19.8893 23.5 19.8825 23.5 19.8756 23.5C19.8687 23.5 19.8618 23.5 19.8548 23.5C19.8478 23.5 19.8407 23.5 19.8336 23.5C19.8265 23.5 19.8193 23.5 19.812 23.5C19.8048 23.5 19.7975 23.5 19.7901 23.5C19.7827 23.5 19.7753 23.5 19.7678 23.5C19.7602 23.5 19.7527 23.5 19.745 23.5C19.7374 23.5 19.7297 23.5 19.722 23.5C19.7142 23.5 19.7064 23.5 19.6985 23.5C19.6906 23.5 19.6826 23.5 19.6746 23.5C19.6666 23.5 19.6585 23.5 19.6504 23.5C19.6422 23.5 19.634 23.5 19.6257 23.5C19.6175 23.5 19.6091 23.5 19.6007 23.5C19.5923 23.5 19.5838 23.5 19.5753 23.5C19.5668 23.5 19.5582 23.5 19.5495 23.5C19.5408 23.5 19.5321 23.5 19.5233 23.5C19.5145 23.5 19.5057 23.5 19.4967 23.5C19.4878 23.5 19.4788 23.5 19.4697 23.5C19.4607 23.5 19.4516 23.5 19.4424 23.5C19.4332 23.5 19.4239 23.5 19.4146 23.5C19.4053 23.5 19.3959 23.5 19.3864 23.5C19.377 23.5 19.3674 23.5 19.3578 23.5C19.3482 23.5 19.3386 23.5 19.3289 23.5C19.3191 23.5 19.3093 23.5 19.2995 23.5C19.2896 23.5 19.2797 23.5 19.2697 23.5C19.2597 23.5 19.2496 23.5 19.2395 23.5C19.2294 23.5 19.2192 23.5 19.2089 23.5C19.1987 23.5 19.1883 23.5 19.1779 23.5C19.1675 23.5 19.157 23.5 19.1465 23.5C19.136 23.5 19.1254 23.5 19.1147 23.5C19.104 23.5 19.0933 23.5 19.0825 23.5C19.0716 23.5 19.0608 23.5 19.0498 23.5C19.0389 23.5 19.0279 23.5 19.0168 23.5C19.0057 23.5 18.9945 23.5 18.9833 23.5C18.9721 23.5 18.9608 23.5 18.9494 23.5C18.938 23.5 18.9266 23.5 18.9151 23.5C18.9036 23.5 18.892 23.5 18.8804 23.5C18.8687 23.5 18.857 23.5 18.8452 23.5C18.8335 23.5 18.8216 23.5 18.8097 23.5C18.7978 23.5 18.7858 23.5 18.7737 23.5C18.7616 23.5 18.7495 23.5 18.7373 23.5C18.7251 23.5 18.7128 23.5 18.7005 23.5C18.6881 23.5 18.6757 23.5 18.6632 23.5C18.6507 23.5 18.6382 23.5 18.6255 23.5C18.6129 23.5 18.6002 23.5 18.5874 23.5C18.5746 23.5 18.5618 23.5 18.5489 23.5C18.5359 23.5 18.523 23.5 18.5099 23.5C18.4968 23.5 18.4837 23.5 18.4705 23.5C18.4573 23.5 18.444 23.5 18.4306 23.5C18.4173 23.5 18.4039 23.5 18.3904 23.5C18.3769 23.5 18.3633 23.5 18.3497 23.5C18.336 23.5 18.3223 23.5 18.3085 23.5C18.2947 23.5 18.2809 23.5 18.2669 23.5C18.253 23.5 18.239 23.5 18.2249 23.5C18.2108 23.5 18.1967 23.5 18.1825 23.5C18.1682 23.5 18.1539 23.5 18.1395 23.5C18.1252 23.5 18.1107 23.5 18.0962 23.5C18.0817 23.5 18.0671 23.5 18.0524 23.5C18.0377 23.5 18.023 23.5 18.0082 23.5C17.9933 23.5 17.9785 23.5 17.9635 23.5C17.9485 23.5 17.9335 23.5 17.9184 23.5C17.9032 23.5 17.888 23.5 17.8728 23.5C17.8575 23.5 17.8422 23.5 17.8267 23.5C17.8113 23.5 17.7958 23.5 17.7803 23.5C17.7647 23.5 17.749 23.5 17.7333 23.5C17.7176 23.5 17.7018 23.5 17.6859 23.5C17.6701 23.5 17.6541 23.5 17.6381 23.5C17.6221 23.5 17.6059 23.5 17.5898 23.5C17.5736 23.5 17.5573 23.5 17.541 23.5C17.5247 23.5 17.5083 23.5 17.4918 23.5C17.4753 23.5 17.4587 23.5 17.4421 23.5C17.4255 23.5 17.4088 23.5 17.392 23.5C17.3752 23.5 17.3583 23.5 17.3414 23.5C17.3244 23.5 17.3074 23.5 17.2903 23.5C17.2732 23.5 17.256 23.5 17.2388 23.5C17.2215 23.5 17.2042 23.5 17.1868 23.5C17.1693 23.5 17.1518 23.5 17.1343 23.5C17.1167 23.5 17.0991 23.5 17.0813 23.5C17.0636 23.5 17.0458 23.5 17.0279 23.5C17.0101 23.5 16.9921 23.5 16.9741 23.5C16.956 23.5 16.9379 23.5 16.9197 23.5C16.9015 23.5 16.8832 23.5 16.8649 23.5C16.8465 23.5 16.8281 23.5 16.8096 23.5C16.7911 23.5 16.7725 23.5 16.7538 23.5C16.7351 23.5 16.7164 23.5 16.6975 23.5C16.6787 23.5 16.6598 23.5 16.6408 23.5C16.6218 23.5 16.6027 23.5 16.5836 23.5C16.5644 23.5 16.5452 23.5 16.5259 23.5C16.5066 23.5 16.4872 23.5 16.4677 23.5C16.4482 23.5 16.4287 23.5 16.409 23.5C16.3894 23.5 16.3697 23.5 16.3499 23.5C16.3301 23.5 16.3102 23.5 16.2902 23.5C16.2703 23.5 16.2502 23.5 16.2301 23.5C16.21 23.5 16.1898 23.5 16.1695 23.5C16.1492 23.5 16.1289 23.5 16.1084 23.5C16.088 23.5 16.0674 23.5 16.0468 23.5C16.0262 23.5 16.0055 23.5 15.9847 23.5C15.964 23.5 15.9431 23.5 15.9221 23.5C15.9012 23.5 15.8802 23.5 15.8591 23.5C15.838 23.5 15.8168 23.5 15.7955 23.5C15.7742 23.5 15.7529 23.5 15.7314 23.5C15.71 23.5 15.6885 23.5 15.6669 23.5C15.6453 23.5 15.6236 23.5 15.6018 23.5C15.58 23.5 15.5582 23.5 15.5362 23.5C15.5143 23.5 15.4923 23.5 15.4702 23.5C15.448 23.5 15.4259 23.5 15.4036 23.5C15.3813 23.5 15.3589 23.5 15.3365 23.5C15.3141 23.5 15.2915 23.5 15.2689 23.5C15.2463 23.5 15.2236 23.5 15.2008 23.5C15.178 23.5 15.1552 23.5 15.1322 23.5C15.1093 23.5 15.0862 23.5 15.0631 23.5C15.04 23.5 15.0168 23.5 14.9935 23.5C14.9702 23.5 14.9468 23.5 14.9233 23.5C14.8999 23.5 14.8763 23.5 14.8527 23.5C14.8291 23.5 14.8053 23.5 14.7815 23.5C14.7577 23.5 14.7338 23.5 14.7098 23.5C14.6859 23.5 14.6618 23.5 14.6377 23.5C14.6135 23.5 14.5893 23.5 14.5649 23.5C14.5406 23.5 14.5162 23.5 14.4917 23.5C14.4672 23.5 14.4426 23.5 14.4179 23.5C14.3933 23.5 14.3685 23.5 14.3437 23.5C14.3188 23.5 14.2939 23.5 14.2689 23.5C14.2438 23.5 14.2187 23.5 14.1935 23.5C14.1683 23.5 14.1431 23.5 14.1177 23.5C14.0923 23.5 14.0668 23.5 14.0413 23.5C14.0157 23.5 13.9901 23.5 13.9644 23.5C13.9387 23.5 13.9128 23.5 13.8869 23.5C13.861 23.5 13.8351 23.5 13.809 23.5C13.7829 23.5 13.7567 23.5 13.7305 23.5C13.7042 23.5 13.6779 23.5 13.6514 23.5C13.625 23.5 13.5985 23.5 13.5719 23.5C13.5453 23.5 13.5186 23.5 13.4918 23.5C13.465 23.5 13.4381 23.5 13.4111 23.5C13.3842 23.5 13.3571 23.5 13.3299 23.5C13.3028 23.5 13.2755 23.5 13.2482 23.5C13.2209 23.5 13.1935 23.5 13.166 23.5C13.1384 23.5 13.1108 23.5 13.0832 23.5C13.0555 23.5 13.0277 23.5 12.9998 23.5C12.9719 23.5 12.944 23.5 12.9159 23.5C12.8879 23.5 12.8597 23.5 12.8315 23.5C12.8032 23.5 12.7749 23.5 12.7465 23.5C12.7181 23.5 12.6896 23.5 12.661 23.5C12.6324 23.5 12.6037 23.5 12.5749 23.5C12.5461 23.5 12.5172 23.5 12.4882 23.5C12.4593 23.5 12.4302 23.5 12.4011 23.5C12.3719 23.5 12.3427 23.5 12.3133 23.5C12.284 23.5 12.2546 23.5 12.225 23.5C12.1955 23.5 12.1659 23.5 12.1362 23.5C12.1065 23.5 12.0767 23.5 12.0468 23.5C12.0169 23.5 11.9869 23.5 11.9568 23.5C11.9267 23.5 11.8966 23.5 11.8663 23.5C11.836 23.5 11.8057 23.5 11.7752 23.5C11.7448 23.5 11.7142 23.5 11.6836 23.5C11.6529 23.5 11.6222 23.5 11.5914 23.5C11.5605 23.5 11.5296 23.5 11.4986 23.5C11.4676 23.5 11.4365 23.5 11.4052 23.5C11.374 23.5 11.3427 23.5 11.3113 23.5C11.2799 23.5 11.2485 23.5 11.2169 23.5C11.1853 23.5 11.1536 23.5 11.1218 23.5C11.0901 23.5 11.0582 23.5 11.0262 23.5C10.9942 23.5 10.9622 23.5 10.93 23.5C10.8979 23.5 10.8656 23.5 10.8333 23.5C10.8009 23.5 10.7685 23.5 10.7359 23.5C10.7034 23.5 10.6708 23.5 10.638 23.5C10.6053 23.5 10.5725 23.5 10.5396 23.5C10.5066 23.5 10.4736 23.5 10.4405 23.5C10.4074 23.5 10.3742 23.5 10.3409 23.5C10.3075 23.5 10.2741 23.5 10.2406 23.5C10.2071 23.5 10.1735 23.5 10.1398 23.5C10.1061 23.5 10.0723 23.5 10.0384 23.5C10.0045 23.5 9.97056 23.5 9.93647 23.5C9.90239 23.5 9.8682 23.5 9.83392 23.5C9.79964 23.5 9.76525 23.5 9.73078 23.5C9.6963 23.5 9.66172 23.5 9.62705 23.5C9.59237 23.5 9.5576 23.5 9.52273 23.5C9.48786 23.5 9.45289 23.5 9.41782 23.5C9.38275 23.5 9.34759 23.5 9.31232 23.5C9.27706 23.5 9.24169 23.5 9.20623 23.5C9.17076 23.5 9.1352 23.5 9.09954 23.5C9.06388 23.5 9.02812 23.5 8.99226 23.5C8.9564 23.5 8.92044 23.5 8.88438 23.5C8.84832 23.5 8.81216 23.5 8.7759 23.5C8.73965 23.5 8.70329 23.5 8.66683 23.5V24.5ZM13.6668 24.5H27.0002V23.5H13.6668V24.5ZM27.0002 24.5H30.7744V23.5H27.0002V24.5ZM31.7457 23.7376L33.3192 17.304L32.3478 17.0665L30.7744 23.5L31.7457 23.7376ZM33.3046 17.3528L36.1244 9.42619L35.1822 9.09103L32.3624 17.0177L33.3046 17.3528ZM24.7586 12.3439L19.5487 2.45342L18.664 2.91948L23.8739 12.81L24.7586 12.3439ZM17.7817 2.4487L13.2257 10.987L14.108 11.4577L18.664 2.91948L17.7817 2.4487ZM6.15494 7.29586L3.85391 6.70782L3.60631 7.67668L5.90735 8.26472L6.15494 7.29586ZM2.66023 8.00061L8.19379 24.162L9.13987 23.838L3.60631 7.67668L2.66023 8.00061ZM34.6163 8.1806C31.9105 9.71198 27.5658 11.5602 24.7465 12.3428L25.014 13.3063C27.9208 12.4995 32.3407 10.6176 35.1089 9.05089L34.6163 8.1806ZM8.66683 24.5H13.6668V23.5H8.66683V24.5ZM9.80045 10.8143L6.62218 7.56542L5.90735 8.26472L9.08562 11.5136L9.80045 10.8143ZM13.2177 11.0026L12.6079 12.2492L13.5062 12.6886L14.116 11.442L13.2177 11.0026ZM12.6079 12.2492L9.80045 10.8143L9.34535 11.7047L12.1528 13.1397L12.6079 12.2492ZM12.6079 12.2492L12.6079 12.2492L12.1528 13.1397C12.6507 13.3941 13.2605 13.1909 13.5062 12.6886L12.6079 12.2492ZM9.08562 11.5136C9.16129 11.5909 9.249 11.6555 9.34535 11.7047L9.80045 10.8143L9.80045 10.8143L9.08562 11.5136ZM3.85391 6.70782C3.08355 6.51095 2.40267 7.24838 2.66023 8.00061L3.60631 7.67668L3.60631 7.67668L3.85391 6.70782ZM5.90735 8.26472L5.90735 8.26472L6.62218 7.56542C6.49407 7.43446 6.33244 7.34122 6.15494 7.29586L5.90735 8.26472ZM19.5487 2.45342C19.1749 1.74364 18.1594 1.74093 17.7817 2.4487L18.664 2.91948L18.664 2.91948L19.5487 2.45342ZM23.8739 12.81C24.0879 13.2162 24.5573 13.4331 25.014 13.3063L24.7465 12.3428C24.7479 12.3424 24.7501 12.3421 24.7525 12.3423C24.7548 12.3425 24.7563 12.343 24.7573 12.3434C24.7591 12.3442 24.7593 12.3451 24.7586 12.3439L23.8739 12.81ZM36.1244 9.42619C36.2895 8.96194 36.0891 8.52891 35.7908 8.28797C35.4942 8.04839 35.0352 7.94357 34.6163 8.1806L35.1089 9.05089C35.1136 9.04825 35.116 9.04776 35.1168 9.04761C35.1178 9.04741 35.1199 9.04715 35.1237 9.04763C35.1325 9.04874 35.1474 9.05377 35.1624 9.06589C35.1775 9.07804 35.1825 9.08908 35.1833 9.09145C35.1835 9.09208 35.1831 9.09102 35.1831 9.08898C35.1831 9.08666 35.1836 9.08698 35.1822 9.09103L36.1244 9.42619ZM30.7744 24.5C31.2352 24.5 31.6363 24.1852 31.7457 23.7376L30.7744 23.5L30.7744 23.5V24.5Z" fill="#5CC6FE"/>
<path d="M31.6289 23.9998H7.37867C7.15676 23.9998 6.95707 23.8535 6.89458 23.6406L2.08249 7.24397C2.03154 7.0704 2.07833 6.88284 2.20484 6.75352L2.56765 6.38265C2.72468 6.22213 2.96945 6.18599 3.16617 6.29427L13.2205 11.8284C13.4656 11.9633 13.7736 11.8709 13.904 11.6234L19.0576 1.83981C19.2451 1.48385 19.7549 1.48385 19.9424 1.83981L25.1032 11.637C25.2307 11.8792 25.5293 11.9738 25.7731 11.8492L36.3028 6.46741C36.6216 6.30446 37 6.53602 37 6.89405C37 6.93972 36.9935 6.98516 36.9806 7.02898L32.1054 23.6406C32.0429 23.8535 31.8508 23.9998 31.6289 23.9998Z" stroke="white" stroke-width="2.5"/>
<path d="M21.1665 16.3334C21.1665 17.0391 20.6069 17.6112 19.9165 17.6112C19.2261 17.6112 18.6665 17.0391 18.6665 16.3334C18.6665 15.6277 19.2261 15.0557 19.9165 15.0557C20.6069 15.0557 21.1665 15.6277 21.1665 16.3334Z" fill="white"/>
</svg>
